G04 #@! TF.GenerationSoftware,KiCad,Pcbnew,8.0.7-8.0.7-0~ubuntu24.04.1*
G04 #@! TF.CreationDate,2024-12-31T11:09:28-07:00*
G04 #@! TF.ProjectId,Sensor Board,53656e73-6f72-4204-926f-6172642e6b69,rev?*
G04 #@! TF.SameCoordinates,Original*
G04 #@! TF.FileFunction,Soldermask,Bot*
G04 #@! TF.FilePolarity,Negative*
%FSLAX46Y46*%
G04 Gerber Fmt 4.6, Leading zero omitted, Abs format (unit mm)*
G04 Created by KiCad (PCBNEW 8.0.7-8.0.7-0~ubuntu24.04.1) date 2024-12-31 11:09:28*
%MOMM*%
%LPD*%
G01*
G04 APERTURE LIST*
G04 Aperture macros list*
%AMRoundRect*
0 Rectangle with rounded corners*
0 $1 Rounding radius*
0 $2 $3 $4 $5 $6 $7 $8 $9 X,Y pos of 4 corners*
0 Add a 4 corners polygon primitive as box body*
4,1,4,$2,$3,$4,$5,$6,$7,$8,$9,$2,$3,0*
0 Add four circle primitives for the rounded corners*
1,1,$1+$1,$2,$3*
1,1,$1+$1,$4,$5*
1,1,$1+$1,$6,$7*
1,1,$1+$1,$8,$9*
0 Add four rect primitives between the rounded corners*
20,1,$1+$1,$2,$3,$4,$5,0*
20,1,$1+$1,$4,$5,$6,$7,0*
20,1,$1+$1,$6,$7,$8,$9,0*
20,1,$1+$1,$8,$9,$2,$3,0*%
%AMFreePoly0*
4,1,35,0.535355,0.785355,0.550000,0.750000,0.550000,-0.750000,0.535355,-0.785355,0.500000,-0.800000,0.000000,-0.800000,-0.012286,-0.794911,-0.071157,-0.794911,-0.085244,-0.792886,-0.221795,-0.752791,-0.234740,-0.746879,-0.354462,-0.669938,-0.365217,-0.660618,-0.458414,-0.553063,-0.466109,-0.541091,-0.525228,-0.411637,-0.529237,-0.397982,-0.549491,-0.257116,-0.550000,-0.250000,-0.550000,0.250000,
-0.549491,0.257116,-0.529237,0.397982,-0.525228,0.411637,-0.466109,0.541091,-0.458414,0.553063,-0.365217,0.660618,-0.354462,0.669938,-0.234740,0.746879,-0.221795,0.752791,-0.085244,0.792886,-0.071157,0.794911,-0.012286,0.794911,0.000000,0.800000,0.500000,0.800000,0.535355,0.785355,0.535355,0.785355,$1*%
%AMFreePoly1*
4,1,35,0.012286,0.794911,0.071157,0.794911,0.085244,0.792886,0.221795,0.752791,0.234740,0.746879,0.354462,0.669938,0.365217,0.660618,0.458414,0.553063,0.466109,0.541091,0.525228,0.411637,0.529237,0.397982,0.549491,0.257116,0.550000,0.250000,0.550000,-0.250000,0.549491,-0.257116,0.529237,-0.397982,0.525228,-0.411637,0.466109,-0.541091,0.458414,-0.553063,0.365217,-0.660618,
0.354462,-0.669938,0.234740,-0.746879,0.221795,-0.752791,0.085244,-0.792886,0.071157,-0.794911,0.012286,-0.794911,0.000000,-0.800000,-0.500000,-0.800000,-0.535355,-0.785355,-0.550000,-0.750000,-0.550000,0.750000,-0.535355,0.785355,-0.500000,0.800000,0.000000,0.800000,0.012286,0.794911,0.012286,0.794911,$1*%
G04 Aperture macros list end*
%ADD10RoundRect,0.050000X0.500000X-0.500000X0.500000X0.500000X-0.500000X0.500000X-0.500000X-0.500000X0*%
%ADD11O,1.100000X1.100000*%
%ADD12RoundRect,0.050000X-0.500000X0.500000X-0.500000X-0.500000X0.500000X-0.500000X0.500000X0.500000X0*%
%ADD13C,1.100000*%
%ADD14RoundRect,0.225000X-0.300000X0.225000X-0.300000X-0.225000X0.300000X-0.225000X0.300000X0.225000X0*%
%ADD15FreePoly0,90.000000*%
%ADD16FreePoly1,90.000000*%
%ADD17RoundRect,0.050000X0.115000X0.325000X-0.115000X0.325000X-0.115000X-0.325000X0.115000X-0.325000X0*%
%ADD18RoundRect,0.050000X0.225000X0.265000X-0.225000X0.265000X-0.225000X-0.265000X0.225000X-0.265000X0*%
G04 APERTURE END LIST*
D10*
G04 #@! TO.C,J1*
X141990000Y-98300000D03*
D11*
X143260000Y-98300000D03*
X144530000Y-98300000D03*
X145800000Y-98300000D03*
X147070000Y-98300000D03*
G04 #@! TD*
D12*
G04 #@! TO.C,J3*
X145775000Y-96000000D03*
D11*
X144505000Y-96000000D03*
X143235000Y-96000000D03*
G04 #@! TD*
D13*
G04 #@! TO.C,TP2*
X143500000Y-104700000D03*
G04 #@! TD*
D14*
G04 #@! TO.C,R2*
X141200000Y-105975000D03*
X141200000Y-107625000D03*
G04 #@! TD*
D15*
G04 #@! TO.C,JP2*
X145700000Y-108750000D03*
D16*
X145700000Y-107450000D03*
G04 #@! TD*
D15*
G04 #@! TO.C,JP1*
X143200000Y-108750000D03*
D16*
X143200000Y-107450000D03*
G04 #@! TD*
D17*
G04 #@! TO.C,J15*
X147310000Y-103180000D03*
X147310000Y-101430000D03*
X146910000Y-103180000D03*
X146910000Y-101430000D03*
X146510000Y-103180000D03*
X146510000Y-101430000D03*
X146110000Y-103180000D03*
X146110000Y-101430000D03*
X145710000Y-103180000D03*
X145710000Y-101430000D03*
X145310000Y-103180000D03*
X145310000Y-101430000D03*
X144910000Y-103180000D03*
X144910000Y-101430000D03*
X144510000Y-103180000D03*
X144510000Y-101430000D03*
X144110000Y-103180000D03*
X144110000Y-101430000D03*
X143710000Y-103180000D03*
X143710000Y-101430000D03*
X143310000Y-103180000D03*
X143310000Y-101430000D03*
X142910000Y-103180000D03*
X142910000Y-101430000D03*
X142510000Y-103180000D03*
X142510000Y-101430000D03*
X142110000Y-103180000D03*
X142110000Y-101430000D03*
X141710000Y-103180000D03*
X141710000Y-101430000D03*
D18*
X148110000Y-102870000D03*
X148110000Y-101740000D03*
X140910000Y-102870000D03*
X140910000Y-101740000D03*
G04 #@! TD*
D14*
G04 #@! TO.C,R4*
X147700000Y-106175000D03*
X147700000Y-107825000D03*
G04 #@! TD*
D13*
G04 #@! TO.C,TP1*
X145500000Y-104700000D03*
G04 #@! TD*
M02*
