%TF.GenerationSoftware,KiCad,Pcbnew,8.0.7-8.0.7-0~ubuntu24.04.1*%
%TF.CreationDate,2024-12-31T11:09:28-07:00*%
%TF.ProjectId,Sensor Board,53656e73-6f72-4204-926f-6172642e6b69,rev?*%
%TF.SameCoordinates,Original*%
%TF.FileFunction,Drillmap*%
%TF.FilePolarity,Positive*%
%FSLAX45Y45*%
G04 Gerber Fmt 4.5, Leading zero omitted, Abs format (unit mm)*
G04 Created by KiCad (PCBNEW 8.0.7-8.0.7-0~ubuntu24.04.1) date 2024-12-31 11:09:28*
%MOMM*%
%LPD*%
G01*
G04 APERTURE LIST*
%ADD10C,0.050000*%
%ADD11C,0.200000*%
G04 APERTURE END LIST*
D10*
X13950000Y-9480000D02*
X14950000Y-9480000D01*
X14950000Y-10980000D01*
X13950000Y-10980000D01*
X13950000Y-9480000D01*
D11*
X14208277Y-11293984D02*
X14208277Y-11093984D01*
X14208277Y-11093984D02*
X14255896Y-11093984D01*
X14255896Y-11093984D02*
X14284467Y-11103508D01*
X14284467Y-11103508D02*
X14303515Y-11122555D01*
X14303515Y-11122555D02*
X14313039Y-11141603D01*
X14313039Y-11141603D02*
X14322562Y-11179698D01*
X14322562Y-11179698D02*
X14322562Y-11208269D01*
X14322562Y-11208269D02*
X14313039Y-11246365D01*
X14313039Y-11246365D02*
X14303515Y-11265412D01*
X14303515Y-11265412D02*
X14284467Y-11284460D01*
X14284467Y-11284460D02*
X14255896Y-11293984D01*
X14255896Y-11293984D02*
X14208277Y-11293984D01*
X14408277Y-11293984D02*
X14408277Y-11160650D01*
X14408277Y-11198746D02*
X14417801Y-11179698D01*
X14417801Y-11179698D02*
X14427324Y-11170174D01*
X14427324Y-11170174D02*
X14446372Y-11160650D01*
X14446372Y-11160650D02*
X14465420Y-11160650D01*
X14532086Y-11293984D02*
X14532086Y-11160650D01*
X14532086Y-11093984D02*
X14522562Y-11103508D01*
X14522562Y-11103508D02*
X14532086Y-11113031D01*
X14532086Y-11113031D02*
X14541610Y-11103508D01*
X14541610Y-11103508D02*
X14532086Y-11093984D01*
X14532086Y-11093984D02*
X14532086Y-11113031D01*
X14655896Y-11293984D02*
X14636848Y-11284460D01*
X14636848Y-11284460D02*
X14627324Y-11265412D01*
X14627324Y-11265412D02*
X14627324Y-11093984D01*
X14760658Y-11293984D02*
X14741610Y-11284460D01*
X14741610Y-11284460D02*
X14732086Y-11265412D01*
X14732086Y-11265412D02*
X14732086Y-11093984D01*
X14989229Y-11293984D02*
X14989229Y-11093984D01*
X14989229Y-11093984D02*
X15055896Y-11236841D01*
X15055896Y-11236841D02*
X15122562Y-11093984D01*
X15122562Y-11093984D02*
X15122562Y-11293984D01*
X15303515Y-11293984D02*
X15303515Y-11189222D01*
X15303515Y-11189222D02*
X15293991Y-11170174D01*
X15293991Y-11170174D02*
X15274943Y-11160650D01*
X15274943Y-11160650D02*
X15236848Y-11160650D01*
X15236848Y-11160650D02*
X15217801Y-11170174D01*
X15303515Y-11284460D02*
X15284467Y-11293984D01*
X15284467Y-11293984D02*
X15236848Y-11293984D01*
X15236848Y-11293984D02*
X15217801Y-11284460D01*
X15217801Y-11284460D02*
X15208277Y-11265412D01*
X15208277Y-11265412D02*
X15208277Y-11246365D01*
X15208277Y-11246365D02*
X15217801Y-11227317D01*
X15217801Y-11227317D02*
X15236848Y-11217793D01*
X15236848Y-11217793D02*
X15284467Y-11217793D01*
X15284467Y-11217793D02*
X15303515Y-11208269D01*
X15398753Y-11160650D02*
X15398753Y-11360650D01*
X15398753Y-11170174D02*
X15417801Y-11160650D01*
X15417801Y-11160650D02*
X15455896Y-11160650D01*
X15455896Y-11160650D02*
X15474943Y-11170174D01*
X15474943Y-11170174D02*
X15484467Y-11179698D01*
X15484467Y-11179698D02*
X15493991Y-11198746D01*
X15493991Y-11198746D02*
X15493991Y-11255888D01*
X15493991Y-11255888D02*
X15484467Y-11274936D01*
X15484467Y-11274936D02*
X15474943Y-11284460D01*
X15474943Y-11284460D02*
X15455896Y-11293984D01*
X15455896Y-11293984D02*
X15417801Y-11293984D01*
X15417801Y-11293984D02*
X15398753Y-11284460D01*
X15579705Y-11274936D02*
X15589229Y-11284460D01*
X15589229Y-11284460D02*
X15579705Y-11293984D01*
X15579705Y-11293984D02*
X15570182Y-11284460D01*
X15570182Y-11284460D02*
X15579705Y-11274936D01*
X15579705Y-11274936D02*
X15579705Y-11293984D01*
X15579705Y-11170174D02*
X15589229Y-11179698D01*
X15589229Y-11179698D02*
X15579705Y-11189222D01*
X15579705Y-11189222D02*
X15570182Y-11179698D01*
X15570182Y-11179698D02*
X15579705Y-11170174D01*
X15579705Y-11170174D02*
X15579705Y-11189222D01*
M02*
