G04 #@! TF.GenerationSoftware,KiCad,Pcbnew,8.0.7-8.0.7-0~ubuntu24.04.1*
G04 #@! TF.CreationDate,2024-12-31T11:09:28-07:00*
G04 #@! TF.ProjectId,Sensor Board,53656e73-6f72-4204-926f-6172642e6b69,rev?*
G04 #@! TF.SameCoordinates,Original*
G04 #@! TF.FileFunction,Paste,Top*
G04 #@! TF.FilePolarity,Positive*
%FSLAX46Y46*%
G04 Gerber Fmt 4.6, Leading zero omitted, Abs format (unit mm)*
G04 Created by KiCad (PCBNEW 8.0.7-8.0.7-0~ubuntu24.04.1) date 2024-12-31 11:09:28*
%MOMM*%
%LPD*%
G01*
G04 APERTURE LIST*
G04 Aperture macros list*
%AMRoundRect*
0 Rectangle with rounded corners*
0 $1 Rounding radius*
0 $2 $3 $4 $5 $6 $7 $8 $9 X,Y pos of 4 corners*
0 Add a 4 corners polygon primitive as box body*
4,1,4,$2,$3,$4,$5,$6,$7,$8,$9,$2,$3,0*
0 Add four circle primitives for the rounded corners*
1,1,$1+$1,$2,$3*
1,1,$1+$1,$4,$5*
1,1,$1+$1,$6,$7*
1,1,$1+$1,$8,$9*
0 Add four rect primitives between the rounded corners*
20,1,$1+$1,$2,$3,$4,$5,0*
20,1,$1+$1,$4,$5,$6,$7,0*
20,1,$1+$1,$6,$7,$8,$9,0*
20,1,$1+$1,$8,$9,$2,$3,0*%
G04 Aperture macros list end*
%ADD10RoundRect,0.150000X-0.150000X-0.625000X0.150000X-0.625000X0.150000X0.625000X-0.150000X0.625000X0*%
%ADD11RoundRect,0.250000X-0.350000X-0.650000X0.350000X-0.650000X0.350000X0.650000X-0.350000X0.650000X0*%
G04 APERTURE END LIST*
G04 #@! TO.C,J2*
G36*
X146060000Y-101210000D02*
G01*
X146400000Y-101210000D01*
X146400000Y-100990000D01*
X146060000Y-100990000D01*
X146060000Y-101210000D01*
G37*
G36*
X146060000Y-101810000D02*
G01*
X146400000Y-101810000D01*
X146400000Y-101590000D01*
X146060000Y-101590000D01*
X146060000Y-101810000D01*
G37*
G36*
X146060000Y-102410000D02*
G01*
X146400000Y-102410000D01*
X146400000Y-102190000D01*
X146060000Y-102190000D01*
X146060000Y-102410000D01*
G37*
G36*
X148770000Y-100910000D02*
G01*
X149210000Y-100910000D01*
X149210000Y-100690000D01*
X148770000Y-100690000D01*
X148770000Y-100910000D01*
G37*
G36*
X148770000Y-101510000D02*
G01*
X149210000Y-101510000D01*
X149210000Y-101290000D01*
X148770000Y-101290000D01*
X148770000Y-101510000D01*
G37*
G36*
X148770000Y-102110000D02*
G01*
X149210000Y-102110000D01*
X149210000Y-101890000D01*
X148770000Y-101890000D01*
X148770000Y-102110000D01*
G37*
G36*
X148770000Y-102710000D02*
G01*
X149210000Y-102710000D01*
X149210000Y-102490000D01*
X148770000Y-102490000D01*
X148770000Y-102710000D01*
G37*
G04 #@! TO.C,J5*
G36*
X140230000Y-100690000D02*
G01*
X139790000Y-100690000D01*
X139790000Y-100910000D01*
X140230000Y-100910000D01*
X140230000Y-100690000D01*
G37*
G36*
X140230000Y-101290000D02*
G01*
X139790000Y-101290000D01*
X139790000Y-101510000D01*
X140230000Y-101510000D01*
X140230000Y-101290000D01*
G37*
G36*
X140230000Y-101890000D02*
G01*
X139790000Y-101890000D01*
X139790000Y-102110000D01*
X140230000Y-102110000D01*
X140230000Y-101890000D01*
G37*
G36*
X140230000Y-102490000D02*
G01*
X139790000Y-102490000D01*
X139790000Y-102710000D01*
X140230000Y-102710000D01*
X140230000Y-102490000D01*
G37*
G36*
X142940000Y-100990000D02*
G01*
X142600000Y-100990000D01*
X142600000Y-101210000D01*
X142940000Y-101210000D01*
X142940000Y-100990000D01*
G37*
G36*
X142940000Y-101590000D02*
G01*
X142600000Y-101590000D01*
X142600000Y-101810000D01*
X142940000Y-101810000D01*
X142940000Y-101590000D01*
G37*
G36*
X142940000Y-102190000D02*
G01*
X142600000Y-102190000D01*
X142600000Y-102410000D01*
X142940000Y-102410000D01*
X142940000Y-102190000D01*
G37*
G04 #@! TD*
D10*
G04 #@! TO.C,J7*
X142900000Y-104800000D03*
X143900000Y-104800000D03*
X144900000Y-104800000D03*
X145900000Y-104800000D03*
D11*
X141600000Y-108675000D03*
X147200000Y-108675000D03*
G04 #@! TD*
M02*
