M48
; DRILL file {KiCad 8.0.7-8.0.7-0~ubuntu24.04.1} date 2024-12-31T11:09:28-0700
; FORMAT={-:-/ absolute / metric / decimal}
; #@! TF.CreationDate,2024-12-31T11:09:28-07:00
; #@! TF.GenerationSoftware,Kicad,Pcbnew,8.0.7-8.0.7-0~ubuntu24.04.1
; #@! TF.FileFunction,Plated,1,2,PTH
FMAT,2
METRIC
; #@! TA.AperFunction,Plated,PTH,ViaDrill
T1C0.300
; #@! TA.AperFunction,Plated,PTH,ComponentDrill
T2C0.650
%
G90
G05
T1
X140.3Y-96.8
X141.1Y-105.1
X141.485Y-102.304
X141.7Y-100.3
X142.91Y-100.267
X143.95Y-106.1
X143.99Y-100.2
X144.485Y-108.799
X144.8Y-102.24
X145.2Y-100.2
X145.267Y-105.8
X146.7Y-104.3
X147.536Y-102.305
X148.1Y-103.9
X148.3Y-105.3
X148.6Y-96.5
T2
X141.99Y-98.3
X143.235Y-96.0
X143.26Y-98.3
X144.505Y-96.0
X144.53Y-98.3
X145.775Y-96.0
X145.8Y-98.3
X147.07Y-98.3
M30
