G04 #@! TF.GenerationSoftware,KiCad,Pcbnew,8.0.7-8.0.7-0~ubuntu24.04.1*
G04 #@! TF.CreationDate,2024-12-31T11:09:28-07:00*
G04 #@! TF.ProjectId,Sensor Board,53656e73-6f72-4204-926f-6172642e6b69,rev?*
G04 #@! TF.SameCoordinates,Original*
G04 #@! TF.FileFunction,Copper,L2,Bot*
G04 #@! TF.FilePolarity,Positive*
%FSLAX46Y46*%
G04 Gerber Fmt 4.6, Leading zero omitted, Abs format (unit mm)*
G04 Created by KiCad (PCBNEW 8.0.7-8.0.7-0~ubuntu24.04.1) date 2024-12-31 11:09:28*
%MOMM*%
%LPD*%
G01*
G04 APERTURE LIST*
G04 Aperture macros list*
%AMRoundRect*
0 Rectangle with rounded corners*
0 $1 Rounding radius*
0 $2 $3 $4 $5 $6 $7 $8 $9 X,Y pos of 4 corners*
0 Add a 4 corners polygon primitive as box body*
4,1,4,$2,$3,$4,$5,$6,$7,$8,$9,$2,$3,0*
0 Add four circle primitives for the rounded corners*
1,1,$1+$1,$2,$3*
1,1,$1+$1,$4,$5*
1,1,$1+$1,$6,$7*
1,1,$1+$1,$8,$9*
0 Add four rect primitives between the rounded corners*
20,1,$1+$1,$2,$3,$4,$5,0*
20,1,$1+$1,$4,$5,$6,$7,0*
20,1,$1+$1,$6,$7,$8,$9,0*
20,1,$1+$1,$8,$9,$2,$3,0*%
%AMFreePoly0*
4,1,19,0.500000,-0.750000,0.000000,-0.750000,0.000000,-0.744911,-0.071157,-0.744911,-0.207708,-0.704816,-0.327430,-0.627875,-0.420627,-0.520320,-0.479746,-0.390866,-0.500000,-0.250000,-0.500000,0.250000,-0.479746,0.390866,-0.420627,0.520320,-0.327430,0.627875,-0.207708,0.704816,-0.071157,0.744911,0.000000,0.744911,0.000000,0.750000,0.500000,0.750000,0.500000,-0.750000,0.500000,-0.750000,
$1*%
%AMFreePoly1*
4,1,19,0.000000,0.744911,0.071157,0.744911,0.207708,0.704816,0.327430,0.627875,0.420627,0.520320,0.479746,0.390866,0.500000,0.250000,0.500000,-0.250000,0.479746,-0.390866,0.420627,-0.520320,0.327430,-0.627875,0.207708,-0.704816,0.071157,-0.744911,0.000000,-0.744911,0.000000,-0.750000,-0.500000,-0.750000,-0.500000,0.750000,0.000000,0.750000,0.000000,0.744911,0.000000,0.744911,
$1*%
G04 Aperture macros list end*
G04 #@! TA.AperFunction,ComponentPad*
%ADD10R,1.000000X1.000000*%
G04 #@! TD*
G04 #@! TA.AperFunction,ComponentPad*
%ADD11O,1.000000X1.000000*%
G04 #@! TD*
G04 #@! TA.AperFunction,SMDPad,CuDef*
%ADD12C,1.000000*%
G04 #@! TD*
G04 #@! TA.AperFunction,SMDPad,CuDef*
%ADD13RoundRect,0.200000X-0.275000X0.200000X-0.275000X-0.200000X0.275000X-0.200000X0.275000X0.200000X0*%
G04 #@! TD*
G04 #@! TA.AperFunction,SMDPad,CuDef*
%ADD14FreePoly0,90.000000*%
G04 #@! TD*
G04 #@! TA.AperFunction,SMDPad,CuDef*
%ADD15FreePoly1,90.000000*%
G04 #@! TD*
G04 #@! TA.AperFunction,SMDPad,CuDef*
%ADD16R,0.230000X0.650000*%
G04 #@! TD*
G04 #@! TA.AperFunction,SMDPad,CuDef*
%ADD17R,0.450000X0.530000*%
G04 #@! TD*
G04 #@! TA.AperFunction,ViaPad*
%ADD18C,0.600000*%
G04 #@! TD*
G04 #@! TA.AperFunction,Conductor*
%ADD19C,0.160000*%
G04 #@! TD*
G04 #@! TA.AperFunction,Conductor*
%ADD20C,0.200000*%
G04 #@! TD*
G04 APERTURE END LIST*
D10*
G04 #@! TO.P,J1,1,Pin_1*
G04 #@! TO.N,VDD*
X141990000Y-98300000D03*
D11*
G04 #@! TO.P,J1,2,Pin_2*
G04 #@! TO.N,SCK1*
X143260000Y-98300000D03*
G04 #@! TO.P,J1,3,Pin_3*
G04 #@! TO.N,MISO1*
X144530000Y-98300000D03*
G04 #@! TO.P,J1,4,Pin_4*
G04 #@! TO.N,MOSI1*
X145800000Y-98300000D03*
G04 #@! TO.P,J1,5,Pin_5*
G04 #@! TO.N,GND*
X147070000Y-98300000D03*
G04 #@! TD*
D10*
G04 #@! TO.P,J3,1,Pin_1*
G04 #@! TO.N,CS1*
X145775000Y-96000000D03*
D11*
G04 #@! TO.P,J3,2,Pin_2*
G04 #@! TO.N,CS2*
X144505000Y-96000000D03*
G04 #@! TO.P,J3,3,Pin_3*
G04 #@! TO.N,Free1*
X143235000Y-96000000D03*
G04 #@! TD*
D12*
G04 #@! TO.P,TP2,1,1*
G04 #@! TO.N,RS485+*
X143500000Y-104700000D03*
G04 #@! TD*
D13*
G04 #@! TO.P,R2,1*
G04 #@! TO.N,VDD*
X141200000Y-105975000D03*
G04 #@! TO.P,R2,2*
G04 #@! TO.N,Net-(JP1-B)*
X141200000Y-107625000D03*
G04 #@! TD*
D14*
G04 #@! TO.P,JP2,1,A*
G04 #@! TO.N,CS1*
X145700000Y-108750000D03*
D15*
G04 #@! TO.P,JP2,2,B*
G04 #@! TO.N,Net-(JP2-B)*
X145700000Y-107450000D03*
G04 #@! TD*
D14*
G04 #@! TO.P,JP1,1,A*
G04 #@! TO.N,CS2*
X143200000Y-108750000D03*
D15*
G04 #@! TO.P,JP1,2,B*
G04 #@! TO.N,Net-(JP1-B)*
X143200000Y-107450000D03*
G04 #@! TD*
D16*
G04 #@! TO.P,J15,1,Pin_1*
G04 #@! TO.N,VDD*
X147310000Y-103180000D03*
G04 #@! TO.P,J15,2,Pin_2*
X147310000Y-101430000D03*
G04 #@! TO.P,J15,3,Pin_3*
G04 #@! TO.N,SDA1*
X146910000Y-103180000D03*
G04 #@! TO.P,J15,4,Pin_4*
G04 #@! TO.N,CS1*
X146910000Y-101430000D03*
G04 #@! TO.P,J15,5,Pin_5*
G04 #@! TO.N,SCL1*
X146510000Y-103180000D03*
G04 #@! TO.P,J15,6,Pin_6*
G04 #@! TO.N,CS2*
X146510000Y-101430000D03*
G04 #@! TO.P,J15,7,Pin_7*
G04 #@! TO.N,GND*
X146110000Y-103180000D03*
G04 #@! TO.P,J15,8,Pin_8*
X146110000Y-101430000D03*
G04 #@! TO.P,J15,9,Pin_9*
G04 #@! TO.N,MISO1*
X145710000Y-103180000D03*
G04 #@! TO.P,J15,10,Pin_10*
G04 #@! TO.N,Free1*
X145710000Y-101430000D03*
G04 #@! TO.P,J15,11,Pin_11*
G04 #@! TO.N,MOSI1*
X145310000Y-103180000D03*
G04 #@! TO.P,J15,12,Pin_12*
G04 #@! TO.N,RS485+*
X145310000Y-101430000D03*
G04 #@! TO.P,J15,13,Pin_13*
G04 #@! TO.N,SCK1*
X144910000Y-103180000D03*
G04 #@! TO.P,J15,14,Pin_14*
G04 #@! TO.N,RS485-*
X144910000Y-101430000D03*
G04 #@! TO.P,J15,15,Pin_15*
G04 #@! TO.N,GND*
X144510000Y-103180000D03*
G04 #@! TO.P,J15,16,Pin_16*
X144510000Y-101430000D03*
G04 #@! TO.P,J15,17,Pin_17*
G04 #@! TO.N,RS485-*
X144110000Y-103180000D03*
G04 #@! TO.P,J15,18,Pin_18*
G04 #@! TO.N,SCK1*
X144110000Y-101430000D03*
G04 #@! TO.P,J15,19,Pin_19*
G04 #@! TO.N,RS485+*
X143710000Y-103180000D03*
G04 #@! TO.P,J15,20,Pin_20*
G04 #@! TO.N,MOSI1*
X143710000Y-101430000D03*
G04 #@! TO.P,J15,21,Pin_21*
G04 #@! TO.N,Free1*
X143310000Y-103180000D03*
G04 #@! TO.P,J15,22,Pin_22*
G04 #@! TO.N,MISO1*
X143310000Y-101430000D03*
G04 #@! TO.P,J15,23,Pin_23*
G04 #@! TO.N,GND*
X142910000Y-103180000D03*
G04 #@! TO.P,J15,24,Pin_24*
X142910000Y-101430000D03*
G04 #@! TO.P,J15,25,Pin_25*
G04 #@! TO.N,CS2*
X142510000Y-103180000D03*
G04 #@! TO.P,J15,26,Pin_26*
G04 #@! TO.N,SCL1*
X142510000Y-101430000D03*
G04 #@! TO.P,J15,27,Pin_27*
G04 #@! TO.N,CS1*
X142110000Y-103180000D03*
G04 #@! TO.P,J15,28,Pin_28*
G04 #@! TO.N,SDA1*
X142110000Y-101430000D03*
G04 #@! TO.P,J15,29,Pin_29*
G04 #@! TO.N,VDD*
X141710000Y-103180000D03*
G04 #@! TO.P,J15,30,Pin_30*
X141710000Y-101430000D03*
D17*
G04 #@! TO.P,J15,MP,MountPin*
G04 #@! TO.N,GND*
X148110000Y-102870000D03*
X148110000Y-101740000D03*
X140910000Y-102870000D03*
X140910000Y-101740000D03*
G04 #@! TD*
D13*
G04 #@! TO.P,R4,1*
G04 #@! TO.N,VDD*
X147700000Y-106175000D03*
G04 #@! TO.P,R4,2*
G04 #@! TO.N,Net-(JP2-B)*
X147700000Y-107825000D03*
G04 #@! TD*
D12*
G04 #@! TO.P,TP1,1,1*
G04 #@! TO.N,RS485-*
X145500000Y-104700000D03*
G04 #@! TD*
D18*
G04 #@! TO.N,GND*
X140300000Y-96800000D03*
X148300000Y-105300000D03*
X141100000Y-105100000D03*
X148600000Y-96500000D03*
X144485000Y-108799246D03*
G04 #@! TO.N,MOSI1*
X145200000Y-100200000D03*
G04 #@! TO.N,VDD*
X141700000Y-100300000D03*
X148100000Y-103900000D03*
X143950000Y-106100000D03*
G04 #@! TO.N,MISO1*
X142910000Y-100267114D03*
G04 #@! TO.N,CS1*
X147536151Y-102305158D03*
G04 #@! TO.N,SCK1*
X144800000Y-102240000D03*
X143990000Y-100200000D03*
G04 #@! TO.N,CS2*
X141484789Y-102303746D03*
G04 #@! TO.N,SCL1*
X146700000Y-104300000D03*
G04 #@! TO.N,SDA1*
X145267173Y-105800000D03*
G04 #@! TD*
D19*
G04 #@! TO.N,GND*
X148640000Y-104960000D02*
X148640000Y-103400000D01*
X148300000Y-105300000D02*
X148640000Y-104960000D01*
X148640000Y-103400000D02*
X148110000Y-102870000D01*
G04 #@! TO.N,MOSI1*
X143766324Y-99660000D02*
X143450000Y-99976324D01*
X144660000Y-99660000D02*
X143766324Y-99660000D01*
X145200000Y-100200000D02*
X144660000Y-99660000D01*
X143450000Y-100685000D02*
X143710000Y-100945000D01*
X143450000Y-99976324D02*
X143450000Y-100685000D01*
X143710000Y-100945000D02*
X143710000Y-101430000D01*
D20*
G04 #@! TO.N,VDD*
X143950000Y-106100000D02*
X144210000Y-106360000D01*
X146810000Y-106090000D02*
X147500000Y-106090000D01*
X141710000Y-103180000D02*
X141710000Y-104300000D01*
X141400000Y-106090000D02*
X142900000Y-106090000D01*
X147580000Y-104420000D02*
X148100000Y-103900000D01*
X141710000Y-104300000D02*
X142900000Y-105490000D01*
X143940000Y-106090000D02*
X142900000Y-106090000D01*
X147500000Y-106090000D02*
X147500000Y-105900000D01*
X144210000Y-106360000D02*
X146540000Y-106360000D01*
X147580000Y-105820000D02*
X147580000Y-104420000D01*
X147500000Y-105900000D02*
X147580000Y-105820000D01*
X146540000Y-106360000D02*
X146810000Y-106090000D01*
X142900000Y-105490000D02*
X142900000Y-106090000D01*
X147310000Y-103180000D02*
X147380000Y-103180000D01*
X143950000Y-106100000D02*
X143940000Y-106090000D01*
X141700000Y-101420000D02*
X141710000Y-101430000D01*
X141700000Y-100300000D02*
X141700000Y-101420000D01*
X147380000Y-103180000D02*
X148100000Y-103900000D01*
D19*
G04 #@! TO.N,MISO1*
X143310000Y-100997548D02*
X143310000Y-101430000D01*
X142910000Y-100597548D02*
X143310000Y-100997548D01*
X142910000Y-100267114D02*
X142910000Y-100597548D01*
G04 #@! TO.N,CS1*
X148300000Y-99352548D02*
X146910000Y-100742548D01*
X148300000Y-98000000D02*
X148300000Y-99352548D01*
X146300000Y-96000000D02*
X148300000Y-98000000D01*
X146910000Y-101950000D02*
X146910000Y-101430000D01*
X147536151Y-102305158D02*
X147265158Y-102305158D01*
X148205000Y-108750000D02*
X145700000Y-108750000D01*
X147595993Y-102365000D02*
X148575000Y-102365000D01*
X147265158Y-102305158D02*
X146910000Y-101950000D01*
X149000000Y-107955000D02*
X148205000Y-108750000D01*
X146910000Y-100742548D02*
X146910000Y-101430000D01*
X147536151Y-102305158D02*
X147595993Y-102365000D01*
X148575000Y-102365000D02*
X149000000Y-102790000D01*
X145775000Y-96000000D02*
X146300000Y-96000000D01*
X149000000Y-102790000D02*
X149000000Y-107955000D01*
G04 #@! TO.N,SCK1*
X144400000Y-102240000D02*
X144110000Y-101950000D01*
X144800000Y-102240000D02*
X144400000Y-102240000D01*
X144110000Y-101950000D02*
X144110000Y-101430000D01*
X143990000Y-100200000D02*
X144110000Y-100320000D01*
X144800000Y-102240000D02*
X144910000Y-102350000D01*
X144110000Y-100320000D02*
X144110000Y-101430000D01*
G04 #@! TO.N,CS2*
X140445000Y-102500000D02*
X140445000Y-108100000D01*
X141095000Y-108750000D02*
X143200000Y-108750000D01*
X145357894Y-97560000D02*
X147376519Y-97560000D01*
X147810000Y-99390000D02*
X146510000Y-100690000D01*
X147810000Y-97993481D02*
X147810000Y-99390000D01*
X144505000Y-96707106D02*
X145357894Y-97560000D01*
X146510000Y-100690000D02*
X146510000Y-101430000D01*
X142510000Y-102660000D02*
X142510000Y-103180000D01*
X141426043Y-102245000D02*
X140700000Y-102245000D01*
X140445000Y-108100000D02*
X141095000Y-108750000D01*
X147376519Y-97560000D02*
X147810000Y-97993481D01*
X142153746Y-102303746D02*
X142510000Y-102660000D01*
X141484789Y-102303746D02*
X142153746Y-102303746D01*
X141484789Y-102303746D02*
X141426043Y-102245000D01*
X140700000Y-102245000D02*
X140445000Y-102500000D01*
X144505000Y-96000000D02*
X144505000Y-96707106D01*
G04 #@! TO.N,Free1*
X141652452Y-99340000D02*
X145240000Y-99340000D01*
X143235000Y-96000000D02*
X142900000Y-96000000D01*
X141250000Y-97650000D02*
X141250000Y-98937548D01*
X145740000Y-99840000D02*
X145740000Y-101400000D01*
X145740000Y-101400000D02*
X145710000Y-101430000D01*
X141250000Y-98937548D02*
X141652452Y-99340000D01*
X142900000Y-96000000D02*
X141250000Y-97650000D01*
X145240000Y-99340000D02*
X145740000Y-99840000D01*
G04 #@! TO.N,SCL1*
X146510000Y-104110000D02*
X146510000Y-103180000D01*
X146700000Y-104300000D02*
X146510000Y-104110000D01*
D20*
G04 #@! TO.N,RS485+*
X143710000Y-104490000D02*
X143710000Y-103180000D01*
X143500000Y-104700000D02*
X143710000Y-104490000D01*
G04 #@! TO.N,RS485-*
X145500000Y-104700000D02*
X144792894Y-104700000D01*
X144110000Y-104017106D02*
X144110000Y-103180000D01*
X144792894Y-104700000D02*
X144110000Y-104017106D01*
D19*
G04 #@! TO.N,SDA1*
X147240000Y-104760000D02*
X147240000Y-104030000D01*
X145267173Y-105800000D02*
X145367173Y-105700000D01*
X146300000Y-105700000D02*
X147240000Y-104760000D01*
X146910000Y-103700000D02*
X146910000Y-103180000D01*
X147240000Y-104030000D02*
X146910000Y-103700000D01*
X145367173Y-105700000D02*
X146300000Y-105700000D01*
G04 #@! TO.N,Net-(JP1-B)*
X143025000Y-107625000D02*
X143200000Y-107450000D01*
X141200000Y-107625000D02*
X143025000Y-107625000D01*
G04 #@! TO.N,Net-(JP2-B)*
X147325000Y-107450000D02*
X145700000Y-107450000D01*
X147700000Y-107825000D02*
X147325000Y-107450000D01*
G04 #@! TD*
G04 #@! TA.AperFunction,Conductor*
G04 #@! TO.N,GND*
G36*
X149271280Y-95018982D02*
G01*
X149298300Y-95065782D01*
X149299500Y-95079500D01*
X149299500Y-102558659D01*
X149281018Y-102609439D01*
X149234218Y-102636459D01*
X149181000Y-102627075D01*
X149164640Y-102614521D01*
X149136233Y-102586115D01*
X149136232Y-102586113D01*
X149136232Y-102586114D01*
X148711233Y-102161114D01*
X148622839Y-102124500D01*
X148622838Y-102124500D01*
X148622837Y-102124500D01*
X148010667Y-102124500D01*
X147959887Y-102106018D01*
X147938806Y-102078319D01*
X147931922Y-102063246D01*
X147927532Y-102053633D01*
X147840815Y-101953557D01*
X147782191Y-101915881D01*
X147729419Y-101881966D01*
X147729418Y-101881965D01*
X147729417Y-101881965D01*
X147690191Y-101870447D01*
X147641678Y-101856202D01*
X147598163Y-101824161D01*
X147585828Y-101774687D01*
X147585500Y-101774687D01*
X147585500Y-101773372D01*
X147585318Y-101772643D01*
X147585498Y-101770813D01*
X147585500Y-101770806D01*
X147585500Y-101089194D01*
X147576187Y-101042376D01*
X147550500Y-101003932D01*
X147540714Y-100989285D01*
X147491882Y-100956658D01*
X147487624Y-100953813D01*
X147487623Y-100953812D01*
X147440806Y-100944500D01*
X147238889Y-100944500D01*
X147188109Y-100926018D01*
X147161089Y-100879218D01*
X147170473Y-100826000D01*
X147183028Y-100809639D01*
X148503882Y-99488785D01*
X148503886Y-99488781D01*
X148540500Y-99400386D01*
X148540500Y-99304709D01*
X148540500Y-97952162D01*
X148503886Y-97863768D01*
X148503886Y-97863767D01*
X148503884Y-97863765D01*
X148503884Y-97863764D01*
X146458639Y-95818519D01*
X146435801Y-95769543D01*
X146435500Y-95762658D01*
X146435500Y-95484194D01*
X146426187Y-95437376D01*
X146390714Y-95384285D01*
X146350984Y-95357740D01*
X146337624Y-95348813D01*
X146337623Y-95348812D01*
X146290806Y-95339500D01*
X145259194Y-95339500D01*
X145212376Y-95348812D01*
X145159285Y-95384285D01*
X145123812Y-95437376D01*
X145114499Y-95484198D01*
X145114119Y-95488058D01*
X145112365Y-95487885D01*
X145096018Y-95532800D01*
X145049218Y-95559820D01*
X144996000Y-95550436D01*
X144983114Y-95541153D01*
X144882961Y-95452426D01*
X144882962Y-95452426D01*
X144740936Y-95377885D01*
X144585202Y-95339500D01*
X144585199Y-95339500D01*
X144424801Y-95339500D01*
X144424797Y-95339500D01*
X144269064Y-95377885D01*
X144269063Y-95377885D01*
X144127038Y-95452426D01*
X144006981Y-95558787D01*
X144006974Y-95558794D01*
X143935015Y-95663045D01*
X143890958Y-95694337D01*
X143837094Y-95689989D01*
X143804985Y-95663045D01*
X143733025Y-95558794D01*
X143733018Y-95558787D01*
X143612961Y-95452426D01*
X143612962Y-95452426D01*
X143470936Y-95377885D01*
X143315202Y-95339500D01*
X143315199Y-95339500D01*
X143154801Y-95339500D01*
X143154797Y-95339500D01*
X142999064Y-95377885D01*
X142999063Y-95377885D01*
X142857038Y-95452426D01*
X142736981Y-95558787D01*
X142736979Y-95558789D01*
X142645859Y-95690797D01*
X142588984Y-95840766D01*
X142588982Y-95840772D01*
X142574283Y-95961822D01*
X142551720Y-96008160D01*
X141046115Y-97513764D01*
X141043118Y-97521000D01*
X141009500Y-97602162D01*
X141009500Y-98889709D01*
X141009500Y-98985387D01*
X141033909Y-99044316D01*
X141046114Y-99073782D01*
X141516217Y-99543885D01*
X141516218Y-99543885D01*
X141516219Y-99543886D01*
X141604613Y-99580500D01*
X141604614Y-99580500D01*
X143314982Y-99580500D01*
X143365762Y-99598982D01*
X143392782Y-99645782D01*
X143383398Y-99699000D01*
X143370843Y-99715361D01*
X143246116Y-99840087D01*
X143244523Y-99842472D01*
X143241558Y-99844645D01*
X143240612Y-99845592D01*
X143240466Y-99845446D01*
X143200943Y-99874424D01*
X143147019Y-99870889D01*
X143136127Y-99865039D01*
X143103269Y-99843922D01*
X143103266Y-99843921D01*
X142976211Y-99806614D01*
X142976210Y-99806614D01*
X142843790Y-99806614D01*
X142843789Y-99806614D01*
X142716733Y-99843921D01*
X142716731Y-99843922D01*
X142605335Y-99915513D01*
X142518619Y-100015588D01*
X142463610Y-100136041D01*
X142463609Y-100136044D01*
X142444765Y-100267114D01*
X142463609Y-100398183D01*
X142463610Y-100398186D01*
X142518619Y-100518639D01*
X142605336Y-100618715D01*
X142656508Y-100651601D01*
X142656911Y-100651860D01*
X142687186Y-100688087D01*
X142706111Y-100733777D01*
X142706116Y-100733784D01*
X142790064Y-100817732D01*
X142812902Y-100866708D01*
X142798916Y-100918906D01*
X142791748Y-100927718D01*
X142782269Y-100937796D01*
X142734015Y-100962123D01*
X142694493Y-100956658D01*
X142687624Y-100953812D01*
X142640806Y-100944500D01*
X142379194Y-100944500D01*
X142325412Y-100955198D01*
X142294588Y-100955198D01*
X142240806Y-100944500D01*
X142039500Y-100944500D01*
X141988720Y-100926018D01*
X141961700Y-100879218D01*
X141960500Y-100865500D01*
X141960500Y-100723120D01*
X141978982Y-100672340D01*
X141996793Y-100656659D01*
X142004664Y-100651601D01*
X142091381Y-100551525D01*
X142146390Y-100431072D01*
X142165235Y-100300000D01*
X142146390Y-100168928D01*
X142091381Y-100048475D01*
X142004664Y-99948399D01*
X141893266Y-99876807D01*
X141853188Y-99865039D01*
X141766211Y-99839500D01*
X141766210Y-99839500D01*
X141633790Y-99839500D01*
X141633789Y-99839500D01*
X141506733Y-99876807D01*
X141506731Y-99876808D01*
X141395335Y-99948399D01*
X141308619Y-100048474D01*
X141253610Y-100168927D01*
X141253609Y-100168930D01*
X141234765Y-100300000D01*
X141253609Y-100431069D01*
X141253610Y-100431072D01*
X141308619Y-100551525D01*
X141395336Y-100651601D01*
X141403207Y-100656659D01*
X141435936Y-100699660D01*
X141439500Y-100723120D01*
X141439500Y-101056276D01*
X141437982Y-101071687D01*
X141434500Y-101089193D01*
X141434500Y-101770805D01*
X141434574Y-101771557D01*
X141434500Y-101771845D01*
X141434500Y-101774687D01*
X141433772Y-101774687D01*
X141421156Y-101823904D01*
X141378212Y-101855098D01*
X141291521Y-101880553D01*
X141291520Y-101880554D01*
X141180124Y-101952145D01*
X141158385Y-101977234D01*
X141111163Y-102003508D01*
X141098681Y-102004500D01*
X140652162Y-102004500D01*
X140593232Y-102028909D01*
X140563767Y-102041114D01*
X140563767Y-102041115D01*
X140241114Y-102363766D01*
X140241112Y-102363769D01*
X140208961Y-102441388D01*
X140208962Y-102441389D01*
X140207929Y-102443885D01*
X140204500Y-102452162D01*
X140204500Y-108052161D01*
X140204500Y-108147839D01*
X140228909Y-108206768D01*
X140241114Y-108236234D01*
X140241116Y-108236235D01*
X140958766Y-108953885D01*
X140958767Y-108953885D01*
X140958768Y-108953886D01*
X141047162Y-108990500D01*
X141142839Y-108990500D01*
X142273647Y-108990500D01*
X142324427Y-109008982D01*
X142345508Y-109036682D01*
X142351281Y-109049324D01*
X142351282Y-109049325D01*
X142429011Y-109170274D01*
X142459860Y-109205875D01*
X142548730Y-109282880D01*
X142568522Y-109300030D01*
X142568528Y-109300034D01*
X142608148Y-109325496D01*
X142738933Y-109385224D01*
X142784132Y-109398495D01*
X142926447Y-109418957D01*
X142973553Y-109418958D01*
X142990222Y-109416561D01*
X142992013Y-109416304D01*
X143003254Y-109415500D01*
X143396746Y-109415500D01*
X143407987Y-109416304D01*
X143409978Y-109416590D01*
X143426447Y-109418958D01*
X143473553Y-109418957D01*
X143615868Y-109398495D01*
X143661067Y-109385224D01*
X143791852Y-109325496D01*
X143831479Y-109300029D01*
X143940140Y-109205875D01*
X143970989Y-109170274D01*
X144048721Y-109049320D01*
X144068289Y-109006470D01*
X144108796Y-108868515D01*
X144115500Y-108821889D01*
X144115500Y-108250000D01*
X144114293Y-108230051D01*
X144086204Y-108155985D01*
X144086203Y-108155984D01*
X144080755Y-108148090D01*
X144081930Y-108147278D01*
X144061309Y-108109236D01*
X144072119Y-108056289D01*
X144080312Y-108045232D01*
X144096543Y-108026912D01*
X144115500Y-107950000D01*
X144115500Y-107378111D01*
X144108796Y-107331485D01*
X144107701Y-107327757D01*
X144068290Y-107193533D01*
X144068289Y-107193530D01*
X144048721Y-107150680D01*
X143970989Y-107029726D01*
X143940140Y-106994125D01*
X143831479Y-106899971D01*
X143831480Y-106899971D01*
X143831477Y-106899969D01*
X143831471Y-106899965D01*
X143791851Y-106874503D01*
X143791848Y-106874502D01*
X143739538Y-106850612D01*
X143661067Y-106814776D01*
X143661061Y-106814774D01*
X143661058Y-106814773D01*
X143615872Y-106801506D01*
X143615873Y-106801506D01*
X143615869Y-106801505D01*
X143615868Y-106801505D01*
X143473553Y-106781043D01*
X143473551Y-106781042D01*
X143473545Y-106781042D01*
X143426448Y-106781042D01*
X143426447Y-106781042D01*
X143417037Y-106782394D01*
X143407987Y-106783696D01*
X143396746Y-106784500D01*
X143003254Y-106784500D01*
X142992013Y-106783696D01*
X142986017Y-106782834D01*
X142973553Y-106781042D01*
X142973551Y-106781042D01*
X142926450Y-106781042D01*
X142831207Y-106794736D01*
X142784132Y-106801505D01*
X142784130Y-106801505D01*
X142784127Y-106801506D01*
X142738941Y-106814773D01*
X142738934Y-106814775D01*
X142738933Y-106814776D01*
X142738929Y-106814777D01*
X142738926Y-106814779D01*
X142608151Y-106874502D01*
X142608148Y-106874503D01*
X142568528Y-106899965D01*
X142568522Y-106899969D01*
X142459863Y-106994122D01*
X142429010Y-107029726D01*
X142429009Y-107029728D01*
X142351282Y-107150674D01*
X142331709Y-107193533D01*
X142292298Y-107327757D01*
X142260257Y-107371273D01*
X142216498Y-107384500D01*
X141902908Y-107384500D01*
X141852128Y-107366018D01*
X141829013Y-107325982D01*
X141827101Y-107326573D01*
X141825291Y-107320714D01*
X141772449Y-107212625D01*
X141772446Y-107212621D01*
X141687378Y-107127553D01*
X141687372Y-107127549D01*
X141612456Y-107090925D01*
X141579286Y-107074709D01*
X141579288Y-107074709D01*
X141544250Y-107069604D01*
X141509215Y-107064500D01*
X141509213Y-107064500D01*
X140890790Y-107064500D01*
X140890783Y-107064501D01*
X140820712Y-107074709D01*
X140820709Y-107074710D01*
X140799195Y-107085228D01*
X140745457Y-107090925D01*
X140700629Y-107060746D01*
X140685500Y-107014254D01*
X140685500Y-106585744D01*
X140703982Y-106534964D01*
X140750782Y-106507944D01*
X140799194Y-106514770D01*
X140820714Y-106525291D01*
X140890785Y-106535500D01*
X141509214Y-106535499D01*
X141579286Y-106525291D01*
X141687375Y-106472449D01*
X141772449Y-106387375D01*
X141772450Y-106387371D01*
X141775148Y-106383595D01*
X141819697Y-106353007D01*
X141839442Y-106350500D01*
X142848183Y-106350500D01*
X142951817Y-106350500D01*
X143521653Y-106350500D01*
X143572433Y-106368982D01*
X143581357Y-106377766D01*
X143616316Y-106418111D01*
X143645336Y-106451601D01*
X143756734Y-106523193D01*
X143846482Y-106549545D01*
X143883789Y-106560500D01*
X144009375Y-106560500D01*
X144055466Y-106577275D01*
X144055972Y-106576520D01*
X144059060Y-106578583D01*
X144060155Y-106578982D01*
X144061496Y-106580211D01*
X144062437Y-106580840D01*
X144062439Y-106580842D01*
X144130140Y-106608884D01*
X144158183Y-106620500D01*
X144158184Y-106620500D01*
X146591817Y-106620500D01*
X146623731Y-106607280D01*
X146687557Y-106580843D01*
X146687558Y-106580842D01*
X146687561Y-106580841D01*
X146894765Y-106373638D01*
X146943741Y-106350801D01*
X146950626Y-106350500D01*
X146987622Y-106350500D01*
X147038402Y-106368982D01*
X147065422Y-106415782D01*
X147065797Y-106418111D01*
X147074709Y-106479287D01*
X147074710Y-106479289D01*
X147127550Y-106587374D01*
X147127553Y-106587378D01*
X147212621Y-106672446D01*
X147212624Y-106672448D01*
X147212625Y-106672449D01*
X147320712Y-106725290D01*
X147320714Y-106725291D01*
X147390785Y-106735500D01*
X148009214Y-106735499D01*
X148079286Y-106725291D01*
X148187375Y-106672449D01*
X148272449Y-106587375D01*
X148325291Y-106479286D01*
X148335500Y-106409215D01*
X148335499Y-105940786D01*
X148325291Y-105870714D01*
X148272449Y-105762625D01*
X148272446Y-105762621D01*
X148187378Y-105677553D01*
X148187372Y-105677549D01*
X148109541Y-105639500D01*
X148079286Y-105624709D01*
X148079288Y-105624709D01*
X148009216Y-105614500D01*
X148009215Y-105614500D01*
X147919500Y-105614500D01*
X147868720Y-105596018D01*
X147841700Y-105549218D01*
X147840500Y-105535500D01*
X147840500Y-104560624D01*
X147858982Y-104509844D01*
X147863639Y-104504763D01*
X147984763Y-104383639D01*
X148033739Y-104360801D01*
X148040624Y-104360500D01*
X148166211Y-104360500D01*
X148210303Y-104347553D01*
X148293266Y-104323193D01*
X148404664Y-104251601D01*
X148491381Y-104151525D01*
X148546390Y-104031072D01*
X148565235Y-103900000D01*
X148546390Y-103768928D01*
X148491381Y-103648475D01*
X148404664Y-103548399D01*
X148361729Y-103520806D01*
X148293268Y-103476808D01*
X148293266Y-103476807D01*
X148166211Y-103439500D01*
X148166210Y-103439500D01*
X148040625Y-103439500D01*
X147989845Y-103421018D01*
X147984764Y-103416361D01*
X147608639Y-103040236D01*
X147585801Y-102991260D01*
X147585500Y-102984375D01*
X147585500Y-102839193D01*
X147585348Y-102837651D01*
X147585500Y-102837057D01*
X147585500Y-102835313D01*
X147585947Y-102835313D01*
X147598761Y-102785303D01*
X147641710Y-102754104D01*
X147647299Y-102752463D01*
X147729417Y-102728351D01*
X147840815Y-102656759D01*
X147851487Y-102644442D01*
X147861607Y-102632765D01*
X147908829Y-102606492D01*
X147921310Y-102605500D01*
X148442658Y-102605500D01*
X148493438Y-102623982D01*
X148498519Y-102628638D01*
X148736361Y-102866479D01*
X148759199Y-102915456D01*
X148759500Y-102922341D01*
X148759500Y-107822659D01*
X148741018Y-107873439D01*
X148736371Y-107878509D01*
X148587971Y-108026910D01*
X148466316Y-108148565D01*
X148417340Y-108171402D01*
X148365142Y-108157416D01*
X148334147Y-108113150D01*
X148332280Y-108081313D01*
X148335500Y-108059215D01*
X148335499Y-107590786D01*
X148325291Y-107520714D01*
X148272449Y-107412625D01*
X148272446Y-107412621D01*
X148187378Y-107327553D01*
X148187372Y-107327549D01*
X148130975Y-107299978D01*
X148079286Y-107274709D01*
X148079288Y-107274709D01*
X148009216Y-107264500D01*
X148009215Y-107264500D01*
X147512342Y-107264500D01*
X147468874Y-107248679D01*
X147467701Y-107250436D01*
X147461234Y-107246114D01*
X147431768Y-107233909D01*
X147372839Y-107209500D01*
X147372838Y-107209500D01*
X147372837Y-107209500D01*
X146626353Y-107209500D01*
X146575573Y-107191018D01*
X146554492Y-107163318D01*
X146548721Y-107150680D01*
X146470989Y-107029726D01*
X146440140Y-106994125D01*
X146331479Y-106899971D01*
X146331480Y-106899971D01*
X146331477Y-106899969D01*
X146331471Y-106899965D01*
X146291851Y-106874503D01*
X146291848Y-106874502D01*
X146239538Y-106850612D01*
X146161067Y-106814776D01*
X146161061Y-106814774D01*
X146161058Y-106814773D01*
X146115872Y-106801506D01*
X146115873Y-106801506D01*
X146115869Y-106801505D01*
X146115868Y-106801505D01*
X145973553Y-106781043D01*
X145973551Y-106781042D01*
X145973545Y-106781042D01*
X145926448Y-106781042D01*
X145926447Y-106781042D01*
X145917037Y-106782394D01*
X145907987Y-106783696D01*
X145896746Y-106784500D01*
X145503254Y-106784500D01*
X145492013Y-106783696D01*
X145486017Y-106782834D01*
X145473553Y-106781042D01*
X145473551Y-106781042D01*
X145426450Y-106781042D01*
X145331207Y-106794736D01*
X145284132Y-106801505D01*
X145284130Y-106801505D01*
X145284127Y-106801506D01*
X145238941Y-106814773D01*
X145238934Y-106814775D01*
X145238933Y-106814776D01*
X145238929Y-106814777D01*
X145238926Y-106814779D01*
X145108151Y-106874502D01*
X145108148Y-106874503D01*
X145068528Y-106899965D01*
X145068522Y-106899969D01*
X144959863Y-106994122D01*
X144929010Y-107029726D01*
X144929009Y-107029728D01*
X144851282Y-107150674D01*
X144831709Y-107193533D01*
X144791204Y-107331481D01*
X144787852Y-107354798D01*
X144784500Y-107378111D01*
X144784500Y-107378115D01*
X144784500Y-107949999D01*
X144785707Y-107969950D01*
X144813796Y-108044015D01*
X144819245Y-108051910D01*
X144818069Y-108052721D01*
X144838690Y-108090762D01*
X144827881Y-108143709D01*
X144819683Y-108154772D01*
X144803457Y-108173087D01*
X144803456Y-108173089D01*
X144784500Y-108249996D01*
X144784500Y-108250000D01*
X144784500Y-108821889D01*
X144788690Y-108851030D01*
X144791204Y-108868518D01*
X144831709Y-109006466D01*
X144831711Y-109006470D01*
X144851279Y-109049320D01*
X144929011Y-109170274D01*
X144959860Y-109205875D01*
X145048730Y-109282880D01*
X145068522Y-109300030D01*
X145068528Y-109300034D01*
X145108148Y-109325496D01*
X145238933Y-109385224D01*
X145284132Y-109398495D01*
X145426447Y-109418957D01*
X145473553Y-109418958D01*
X145490222Y-109416561D01*
X145492013Y-109416304D01*
X145503254Y-109415500D01*
X145896746Y-109415500D01*
X145907987Y-109416304D01*
X145909978Y-109416590D01*
X145926447Y-109418958D01*
X145973553Y-109418957D01*
X146115868Y-109398495D01*
X146161067Y-109385224D01*
X146291852Y-109325496D01*
X146331479Y-109300029D01*
X146440140Y-109205875D01*
X146470989Y-109170274D01*
X146548721Y-109049320D01*
X146554492Y-109036681D01*
X146592399Y-108998169D01*
X146626353Y-108990500D01*
X148252837Y-108990500D01*
X148252839Y-108990500D01*
X148341233Y-108953886D01*
X148473235Y-108821884D01*
X149164639Y-108130480D01*
X149213615Y-108107642D01*
X149265812Y-108121628D01*
X149296808Y-108165894D01*
X149299500Y-108186341D01*
X149299500Y-109520500D01*
X149281018Y-109571280D01*
X149234218Y-109598300D01*
X149220500Y-109599500D01*
X139779500Y-109599500D01*
X139728720Y-109581018D01*
X139701700Y-109534218D01*
X139700500Y-109520500D01*
X139700500Y-95079500D01*
X139718982Y-95028720D01*
X139765782Y-95001700D01*
X139779500Y-95000500D01*
X149220500Y-95000500D01*
X149271280Y-95018982D01*
G37*
G04 #@! TD.AperFunction*
G04 #@! TA.AperFunction,Conductor*
G36*
X141061555Y-102503982D02*
G01*
X141082635Y-102531681D01*
X141088373Y-102544246D01*
X141093408Y-102555271D01*
X141136928Y-102605496D01*
X141180125Y-102655347D01*
X141291523Y-102726939D01*
X141378451Y-102752463D01*
X141421967Y-102784503D01*
X141434814Y-102836002D01*
X141434500Y-102839191D01*
X141434500Y-103520805D01*
X141445331Y-103575256D01*
X141445167Y-103575288D01*
X141449500Y-103597068D01*
X141449500Y-104351819D01*
X141489156Y-104447557D01*
X141489161Y-104447564D01*
X142616361Y-105574763D01*
X142639199Y-105623739D01*
X142639500Y-105630624D01*
X142639500Y-105750500D01*
X142621018Y-105801280D01*
X142574218Y-105828300D01*
X142560500Y-105829500D01*
X141914499Y-105829500D01*
X141863719Y-105811018D01*
X141836699Y-105764218D01*
X141835499Y-105750500D01*
X141835499Y-105740790D01*
X141835499Y-105740786D01*
X141825291Y-105670714D01*
X141772449Y-105562625D01*
X141772446Y-105562621D01*
X141687378Y-105477553D01*
X141687372Y-105477549D01*
X141603120Y-105436361D01*
X141579286Y-105424709D01*
X141579288Y-105424709D01*
X141544250Y-105419604D01*
X141509215Y-105414500D01*
X141509213Y-105414500D01*
X140890790Y-105414500D01*
X140890783Y-105414501D01*
X140820712Y-105424709D01*
X140820709Y-105424710D01*
X140799195Y-105435228D01*
X140745457Y-105440925D01*
X140700629Y-105410746D01*
X140685500Y-105364254D01*
X140685500Y-102632340D01*
X140703982Y-102581560D01*
X140708639Y-102576479D01*
X140776479Y-102508639D01*
X140825455Y-102485801D01*
X140832340Y-102485500D01*
X141010775Y-102485500D01*
X141061555Y-102503982D01*
G37*
G04 #@! TD.AperFunction*
G04 #@! TA.AperFunction,Conductor*
G36*
X147320000Y-99269159D02*
G01*
X147406797Y-99242831D01*
X147460756Y-99245777D01*
X147500197Y-99282718D01*
X147506665Y-99336368D01*
X147485590Y-99374290D01*
X146306116Y-100553764D01*
X146306114Y-100553767D01*
X146293020Y-100585381D01*
X146284348Y-100606317D01*
X146284347Y-100606317D01*
X146269500Y-100642159D01*
X146269500Y-100979968D01*
X146256187Y-101023857D01*
X146243812Y-101042376D01*
X146238984Y-101066650D01*
X146234500Y-101089194D01*
X146234500Y-101770806D01*
X146235272Y-101774687D01*
X146243812Y-101817623D01*
X146279285Y-101870714D01*
X146296126Y-101881966D01*
X146332376Y-101906187D01*
X146379194Y-101915500D01*
X146590500Y-101915500D01*
X146641280Y-101933982D01*
X146668300Y-101980782D01*
X146669500Y-101994500D01*
X146669500Y-101997839D01*
X146683227Y-102030978D01*
X146706114Y-102086234D01*
X147107964Y-102488084D01*
X147123963Y-102511126D01*
X147144767Y-102556679D01*
X147144768Y-102556681D01*
X147144770Y-102556683D01*
X147159782Y-102574008D01*
X147179069Y-102624487D01*
X147161396Y-102675554D01*
X147115032Y-102703314D01*
X147084668Y-102703224D01*
X147040807Y-102694500D01*
X147040806Y-102694500D01*
X146779194Y-102694500D01*
X146725412Y-102705198D01*
X146694588Y-102705198D01*
X146640806Y-102694500D01*
X146379194Y-102694500D01*
X146332376Y-102703812D01*
X146279285Y-102739285D01*
X146243812Y-102792376D01*
X146234500Y-102839194D01*
X146234500Y-103520805D01*
X146243812Y-103567623D01*
X146243813Y-103567624D01*
X146256185Y-103586140D01*
X146269500Y-103630031D01*
X146269500Y-104116948D01*
X146262361Y-104149765D01*
X146253611Y-104168924D01*
X146253609Y-104168930D01*
X146234765Y-104300000D01*
X146242769Y-104355674D01*
X146231701Y-104408568D01*
X146189223Y-104441972D01*
X146135211Y-104440257D01*
X146094938Y-104404225D01*
X146090706Y-104394927D01*
X146089140Y-104390797D01*
X146030867Y-104306375D01*
X145998022Y-104258791D01*
X145998020Y-104258789D01*
X145998018Y-104258787D01*
X145877961Y-104152426D01*
X145877962Y-104152426D01*
X145735936Y-104077885D01*
X145580202Y-104039500D01*
X145580199Y-104039500D01*
X145419801Y-104039500D01*
X145419797Y-104039500D01*
X145264064Y-104077885D01*
X145264063Y-104077885D01*
X145122038Y-104152426D01*
X145001981Y-104258787D01*
X145001977Y-104258791D01*
X144940708Y-104347553D01*
X144896650Y-104378844D01*
X144842787Y-104374495D01*
X144819832Y-104358536D01*
X144393639Y-103932343D01*
X144370801Y-103883367D01*
X144370500Y-103876482D01*
X144370500Y-103597068D01*
X144374832Y-103575288D01*
X144374669Y-103575256D01*
X144385500Y-103520805D01*
X144385500Y-102839194D01*
X144376187Y-102792376D01*
X144340714Y-102739285D01*
X144300984Y-102712740D01*
X144287624Y-102703813D01*
X144287623Y-102703812D01*
X144240806Y-102694500D01*
X143979194Y-102694500D01*
X143925412Y-102705198D01*
X143894588Y-102705198D01*
X143840806Y-102694500D01*
X143579194Y-102694500D01*
X143525412Y-102705198D01*
X143494588Y-102705198D01*
X143440806Y-102694500D01*
X143179194Y-102694500D01*
X143132376Y-102703812D01*
X143079285Y-102739285D01*
X143043812Y-102792376D01*
X143034500Y-102839194D01*
X143034500Y-103520805D01*
X143043812Y-103567623D01*
X143079285Y-103620714D01*
X143093230Y-103630031D01*
X143132376Y-103656187D01*
X143179194Y-103665500D01*
X143370500Y-103665500D01*
X143421280Y-103683982D01*
X143448300Y-103730782D01*
X143449500Y-103744500D01*
X143449500Y-103970287D01*
X143431018Y-104021067D01*
X143389406Y-104046991D01*
X143264064Y-104077885D01*
X143264063Y-104077885D01*
X143122038Y-104152426D01*
X143001981Y-104258787D01*
X143001979Y-104258789D01*
X142910859Y-104390797D01*
X142853983Y-104540768D01*
X142853983Y-104540769D01*
X142834649Y-104699999D01*
X142834649Y-104700000D01*
X142853983Y-104859230D01*
X142855663Y-104863660D01*
X142856387Y-104917694D01*
X142822210Y-104959552D01*
X142769122Y-104969649D01*
X142725935Y-104947533D01*
X141993639Y-104215237D01*
X141970801Y-104166261D01*
X141970500Y-104159376D01*
X141970500Y-103744500D01*
X141988982Y-103693720D01*
X142035782Y-103666700D01*
X142049500Y-103665500D01*
X142240804Y-103665500D01*
X142240806Y-103665500D01*
X142287624Y-103656187D01*
X142287625Y-103656185D01*
X142294587Y-103654801D01*
X142325413Y-103654801D01*
X142332374Y-103656185D01*
X142332376Y-103656187D01*
X142379194Y-103665500D01*
X142379196Y-103665500D01*
X142640806Y-103665500D01*
X142687624Y-103656187D01*
X142740714Y-103620714D01*
X142776187Y-103567624D01*
X142785500Y-103520806D01*
X142785500Y-102839194D01*
X142776187Y-102792376D01*
X142763812Y-102773856D01*
X142750500Y-102729968D01*
X142750500Y-102612161D01*
X142750499Y-102612160D01*
X142747740Y-102605496D01*
X142747740Y-102605495D01*
X142713888Y-102523770D01*
X142713883Y-102523763D01*
X142289980Y-102099860D01*
X142257083Y-102086234D01*
X142211820Y-102067485D01*
X142171980Y-102030978D01*
X142164927Y-101977402D01*
X142193962Y-101931825D01*
X142237071Y-101917191D01*
X142236942Y-101915881D01*
X142240799Y-101915501D01*
X142240804Y-101915500D01*
X142240806Y-101915500D01*
X142287624Y-101906187D01*
X142287625Y-101906185D01*
X142294587Y-101904801D01*
X142325413Y-101904801D01*
X142332374Y-101906185D01*
X142332376Y-101906187D01*
X142379194Y-101915500D01*
X142379196Y-101915500D01*
X142640806Y-101915500D01*
X142687624Y-101906187D01*
X142740714Y-101870714D01*
X142776187Y-101817624D01*
X142785500Y-101770806D01*
X142785500Y-101184000D01*
X142803982Y-101133220D01*
X142850782Y-101106200D01*
X142864500Y-101105000D01*
X142955500Y-101105000D01*
X143006280Y-101123482D01*
X143033300Y-101170282D01*
X143034500Y-101184000D01*
X143034500Y-101770806D01*
X143035272Y-101774687D01*
X143043812Y-101817623D01*
X143079285Y-101870714D01*
X143096126Y-101881966D01*
X143132376Y-101906187D01*
X143179194Y-101915500D01*
X143440804Y-101915500D01*
X143440806Y-101915500D01*
X143487624Y-101906187D01*
X143487625Y-101906185D01*
X143494587Y-101904801D01*
X143525413Y-101904801D01*
X143532374Y-101906185D01*
X143532376Y-101906187D01*
X143579194Y-101915500D01*
X143579196Y-101915500D01*
X143790500Y-101915500D01*
X143841280Y-101933982D01*
X143868300Y-101980782D01*
X143869500Y-101994500D01*
X143869500Y-101997839D01*
X143883227Y-102030978D01*
X143906114Y-102086234D01*
X144263765Y-102443885D01*
X144263766Y-102443885D01*
X144263767Y-102443886D01*
X144352161Y-102480500D01*
X144352162Y-102480500D01*
X144362988Y-102480500D01*
X144413768Y-102498982D01*
X144422692Y-102507766D01*
X144490580Y-102586113D01*
X144495336Y-102591601D01*
X144606734Y-102663193D01*
X144606737Y-102663194D01*
X144611870Y-102665538D01*
X144611378Y-102666614D01*
X144650244Y-102695231D01*
X144662984Y-102747747D01*
X144650158Y-102782880D01*
X144643812Y-102792376D01*
X144634500Y-102839194D01*
X144634500Y-103520805D01*
X144643812Y-103567623D01*
X144679285Y-103620714D01*
X144693230Y-103630031D01*
X144732376Y-103656187D01*
X144779194Y-103665500D01*
X145040804Y-103665500D01*
X145040806Y-103665500D01*
X145087624Y-103656187D01*
X145087625Y-103656185D01*
X145094587Y-103654801D01*
X145125413Y-103654801D01*
X145132374Y-103656185D01*
X145132376Y-103656187D01*
X145179194Y-103665500D01*
X145179196Y-103665500D01*
X145440804Y-103665500D01*
X145440806Y-103665500D01*
X145487624Y-103656187D01*
X145487625Y-103656185D01*
X145494587Y-103654801D01*
X145525413Y-103654801D01*
X145532374Y-103656185D01*
X145532376Y-103656187D01*
X145579194Y-103665500D01*
X145579196Y-103665500D01*
X145840806Y-103665500D01*
X145887624Y-103656187D01*
X145940714Y-103620714D01*
X145976187Y-103567624D01*
X145985500Y-103520806D01*
X145985500Y-102839194D01*
X145976187Y-102792376D01*
X145958335Y-102765658D01*
X145940714Y-102739285D01*
X145900984Y-102712740D01*
X145887624Y-102703813D01*
X145887623Y-102703812D01*
X145840806Y-102694500D01*
X145579194Y-102694500D01*
X145525412Y-102705198D01*
X145494588Y-102705198D01*
X145440806Y-102694500D01*
X145188487Y-102694500D01*
X145137707Y-102676018D01*
X145110687Y-102629218D01*
X145120071Y-102576000D01*
X145128783Y-102563766D01*
X145191381Y-102491525D01*
X145246390Y-102371072D01*
X145265235Y-102240000D01*
X145255165Y-102169962D01*
X145266233Y-102117070D01*
X145308710Y-102083665D01*
X145339415Y-102079954D01*
X145600000Y-102100000D01*
X145600000Y-102099999D01*
X145600000Y-101994500D01*
X145618482Y-101943720D01*
X145665282Y-101916700D01*
X145679000Y-101915500D01*
X145840806Y-101915500D01*
X145887624Y-101906187D01*
X145940714Y-101870714D01*
X145976187Y-101817624D01*
X145985500Y-101770806D01*
X145985500Y-101089194D01*
X145982018Y-101071687D01*
X145980500Y-101056276D01*
X145980500Y-99792163D01*
X145980500Y-99792162D01*
X145943886Y-99703768D01*
X145876232Y-99636114D01*
X145376233Y-99136114D01*
X145287839Y-99099500D01*
X145287838Y-99099500D01*
X145287837Y-99099500D01*
X144696878Y-99099500D01*
X144646098Y-99081018D01*
X144619078Y-99034218D01*
X144628462Y-98981000D01*
X144669858Y-98946264D01*
X144677972Y-98943796D01*
X144724656Y-98932288D01*
X144765937Y-98922114D01*
X144907962Y-98847573D01*
X145028022Y-98741209D01*
X145099984Y-98636953D01*
X145144042Y-98605662D01*
X145197906Y-98610010D01*
X145230016Y-98636954D01*
X145301979Y-98741210D01*
X145301981Y-98741212D01*
X145422038Y-98847573D01*
X145422037Y-98847573D01*
X145551869Y-98915714D01*
X145564063Y-98922114D01*
X145719801Y-98960500D01*
X145880199Y-98960500D01*
X146035937Y-98922114D01*
X146154390Y-98859944D01*
X146207939Y-98852711D01*
X146252168Y-98879779D01*
X146359471Y-99010528D01*
X146511739Y-99135492D01*
X146685468Y-99228351D01*
X146685472Y-99228352D01*
X146820000Y-99269160D01*
X146820000Y-98509618D01*
X146870446Y-98560064D01*
X146944555Y-98602851D01*
X147027213Y-98625000D01*
X147112787Y-98625000D01*
X147195445Y-98602851D01*
X147269554Y-98560064D01*
X147320000Y-98509618D01*
X147320000Y-99269159D01*
G37*
G04 #@! TD.AperFunction*
G04 #@! TA.AperFunction,Conductor*
G36*
X147291780Y-97818982D02*
G01*
X147318800Y-97865782D01*
X147320000Y-97879500D01*
X147320000Y-98090382D01*
X147269554Y-98039936D01*
X147195445Y-97997149D01*
X147112787Y-97975000D01*
X147027213Y-97975000D01*
X146944555Y-97997149D01*
X146870446Y-98039936D01*
X146820000Y-98090382D01*
X146820000Y-97879500D01*
X146838482Y-97828720D01*
X146885282Y-97801700D01*
X146899000Y-97800500D01*
X147241000Y-97800500D01*
X147291780Y-97818982D01*
G37*
G04 #@! TD.AperFunction*
G04 #@! TD*
M02*
