%TF.GenerationSoftware,KiCad,Pcbnew,8.0.7-8.0.7-0~ubuntu24.04.1*%
%TF.CreationDate,2024-12-31T11:09:28-07:00*%
%TF.ProjectId,Sensor Board,53656e73-6f72-4204-926f-6172642e6b69,rev?*%
%TF.SameCoordinates,Original*%
%TF.FileFunction,Drillmap*%
%TF.FilePolarity,Positive*%
%FSLAX45Y45*%
G04 Gerber Fmt 4.5, Leading zero omitted, Abs format (unit mm)*
G04 Created by KiCad (PCBNEW 8.0.7-8.0.7-0~ubuntu24.04.1) date 2024-12-31 11:09:28*
%MOMM*%
%LPD*%
G01*
G04 APERTURE LIST*
%ADD10C,0.050000*%
%ADD11C,0.200000*%
%ADD12C,0.100000*%
G04 APERTURE END LIST*
D10*
X13950000Y-9480000D02*
X14950000Y-9480000D01*
X14950000Y-10980000D01*
X13950000Y-10980000D01*
X13950000Y-9480000D01*
D11*
D12*
X14015000Y-9665000D02*
X14045000Y-9695000D01*
X14045000Y-9665000D02*
X14015000Y-9695000D01*
X14095000Y-10495000D02*
X14125000Y-10525000D01*
X14125000Y-10495000D02*
X14095000Y-10525000D01*
X14133479Y-10215375D02*
X14163479Y-10245375D01*
X14163479Y-10215375D02*
X14133479Y-10245375D01*
X14155000Y-10015000D02*
X14185000Y-10045000D01*
X14185000Y-10015000D02*
X14155000Y-10045000D01*
X14276000Y-10011711D02*
X14306000Y-10041711D01*
X14306000Y-10011711D02*
X14276000Y-10041711D01*
X14380000Y-10595000D02*
X14410000Y-10625000D01*
X14410000Y-10595000D02*
X14380000Y-10625000D01*
X14384000Y-10005000D02*
X14414000Y-10035000D01*
X14414000Y-10005000D02*
X14384000Y-10035000D01*
X14433500Y-10864925D02*
X14463500Y-10894925D01*
X14463500Y-10864925D02*
X14433500Y-10894925D01*
X14465000Y-10209000D02*
X14495000Y-10239000D01*
X14495000Y-10209000D02*
X14465000Y-10239000D01*
X14505000Y-10005000D02*
X14535000Y-10035000D01*
X14535000Y-10005000D02*
X14505000Y-10035000D01*
X14511717Y-10565000D02*
X14541717Y-10595000D01*
X14541717Y-10565000D02*
X14511717Y-10595000D01*
X14655000Y-10415000D02*
X14685000Y-10445000D01*
X14685000Y-10415000D02*
X14655000Y-10445000D01*
X14738615Y-10215516D02*
X14768615Y-10245516D01*
X14768615Y-10215516D02*
X14738615Y-10245516D01*
X14795000Y-10375000D02*
X14825000Y-10405000D01*
X14825000Y-10375000D02*
X14795000Y-10405000D01*
X14815000Y-10515000D02*
X14845000Y-10545000D01*
X14845000Y-10515000D02*
X14815000Y-10545000D01*
X14845000Y-9635000D02*
X14875000Y-9665000D01*
X14875000Y-9635000D02*
X14845000Y-9665000D01*
X14231500Y-9830000D02*
G75*
G02*
X14166500Y-9830000I-32500J0D01*
G01*
X14166500Y-9830000D02*
G75*
G02*
X14231500Y-9830000I32500J0D01*
G01*
X14356000Y-9600000D02*
G75*
G02*
X14291000Y-9600000I-32500J0D01*
G01*
X14291000Y-9600000D02*
G75*
G02*
X14356000Y-9600000I32500J0D01*
G01*
X14358500Y-9830000D02*
G75*
G02*
X14293500Y-9830000I-32500J0D01*
G01*
X14293500Y-9830000D02*
G75*
G02*
X14358500Y-9830000I32500J0D01*
G01*
X14483000Y-9600000D02*
G75*
G02*
X14418000Y-9600000I-32500J0D01*
G01*
X14418000Y-9600000D02*
G75*
G02*
X14483000Y-9600000I32500J0D01*
G01*
X14485500Y-9830000D02*
G75*
G02*
X14420500Y-9830000I-32500J0D01*
G01*
X14420500Y-9830000D02*
G75*
G02*
X14485500Y-9830000I32500J0D01*
G01*
X14610000Y-9600000D02*
G75*
G02*
X14545000Y-9600000I-32500J0D01*
G01*
X14545000Y-9600000D02*
G75*
G02*
X14610000Y-9600000I32500J0D01*
G01*
X14612500Y-9830000D02*
G75*
G02*
X14547500Y-9830000I-32500J0D01*
G01*
X14547500Y-9830000D02*
G75*
G02*
X14612500Y-9830000I32500J0D01*
G01*
X14739500Y-9830000D02*
G75*
G02*
X14674500Y-9830000I-32500J0D01*
G01*
X14674500Y-9830000D02*
G75*
G02*
X14739500Y-9830000I32500J0D01*
G01*
D11*
X14208277Y-11293984D02*
X14208277Y-11093984D01*
X14208277Y-11093984D02*
X14255896Y-11093984D01*
X14255896Y-11093984D02*
X14284467Y-11103508D01*
X14284467Y-11103508D02*
X14303515Y-11122555D01*
X14303515Y-11122555D02*
X14313039Y-11141603D01*
X14313039Y-11141603D02*
X14322562Y-11179698D01*
X14322562Y-11179698D02*
X14322562Y-11208269D01*
X14322562Y-11208269D02*
X14313039Y-11246365D01*
X14313039Y-11246365D02*
X14303515Y-11265412D01*
X14303515Y-11265412D02*
X14284467Y-11284460D01*
X14284467Y-11284460D02*
X14255896Y-11293984D01*
X14255896Y-11293984D02*
X14208277Y-11293984D01*
X14408277Y-11293984D02*
X14408277Y-11160650D01*
X14408277Y-11198746D02*
X14417801Y-11179698D01*
X14417801Y-11179698D02*
X14427324Y-11170174D01*
X14427324Y-11170174D02*
X14446372Y-11160650D01*
X14446372Y-11160650D02*
X14465420Y-11160650D01*
X14532086Y-11293984D02*
X14532086Y-11160650D01*
X14532086Y-11093984D02*
X14522562Y-11103508D01*
X14522562Y-11103508D02*
X14532086Y-11113031D01*
X14532086Y-11113031D02*
X14541610Y-11103508D01*
X14541610Y-11103508D02*
X14532086Y-11093984D01*
X14532086Y-11093984D02*
X14532086Y-11113031D01*
X14655896Y-11293984D02*
X14636848Y-11284460D01*
X14636848Y-11284460D02*
X14627324Y-11265412D01*
X14627324Y-11265412D02*
X14627324Y-11093984D01*
X14760658Y-11293984D02*
X14741610Y-11284460D01*
X14741610Y-11284460D02*
X14732086Y-11265412D01*
X14732086Y-11265412D02*
X14732086Y-11093984D01*
X14989229Y-11293984D02*
X14989229Y-11093984D01*
X14989229Y-11093984D02*
X15055896Y-11236841D01*
X15055896Y-11236841D02*
X15122562Y-11093984D01*
X15122562Y-11093984D02*
X15122562Y-11293984D01*
X15303515Y-11293984D02*
X15303515Y-11189222D01*
X15303515Y-11189222D02*
X15293991Y-11170174D01*
X15293991Y-11170174D02*
X15274943Y-11160650D01*
X15274943Y-11160650D02*
X15236848Y-11160650D01*
X15236848Y-11160650D02*
X15217801Y-11170174D01*
X15303515Y-11284460D02*
X15284467Y-11293984D01*
X15284467Y-11293984D02*
X15236848Y-11293984D01*
X15236848Y-11293984D02*
X15217801Y-11284460D01*
X15217801Y-11284460D02*
X15208277Y-11265412D01*
X15208277Y-11265412D02*
X15208277Y-11246365D01*
X15208277Y-11246365D02*
X15217801Y-11227317D01*
X15217801Y-11227317D02*
X15236848Y-11217793D01*
X15236848Y-11217793D02*
X15284467Y-11217793D01*
X15284467Y-11217793D02*
X15303515Y-11208269D01*
X15398753Y-11160650D02*
X15398753Y-11360650D01*
X15398753Y-11170174D02*
X15417801Y-11160650D01*
X15417801Y-11160650D02*
X15455896Y-11160650D01*
X15455896Y-11160650D02*
X15474943Y-11170174D01*
X15474943Y-11170174D02*
X15484467Y-11179698D01*
X15484467Y-11179698D02*
X15493991Y-11198746D01*
X15493991Y-11198746D02*
X15493991Y-11255888D01*
X15493991Y-11255888D02*
X15484467Y-11274936D01*
X15484467Y-11274936D02*
X15474943Y-11284460D01*
X15474943Y-11284460D02*
X15455896Y-11293984D01*
X15455896Y-11293984D02*
X15417801Y-11293984D01*
X15417801Y-11293984D02*
X15398753Y-11284460D01*
X15579705Y-11274936D02*
X15589229Y-11284460D01*
X15589229Y-11284460D02*
X15579705Y-11293984D01*
X15579705Y-11293984D02*
X15570182Y-11284460D01*
X15570182Y-11284460D02*
X15579705Y-11274936D01*
X15579705Y-11274936D02*
X15579705Y-11293984D01*
X15579705Y-11170174D02*
X15589229Y-11179698D01*
X15589229Y-11179698D02*
X15579705Y-11189222D01*
X15579705Y-11189222D02*
X15570182Y-11179698D01*
X15570182Y-11179698D02*
X15579705Y-11170174D01*
X15579705Y-11170174D02*
X15579705Y-11189222D01*
D12*
X13917500Y-11607500D02*
X13947500Y-11637500D01*
X13947500Y-11607500D02*
X13917500Y-11637500D01*
D11*
X14246372Y-11513984D02*
X14265420Y-11513984D01*
X14265420Y-11513984D02*
X14284467Y-11523508D01*
X14284467Y-11523508D02*
X14293991Y-11533031D01*
X14293991Y-11533031D02*
X14303515Y-11552079D01*
X14303515Y-11552079D02*
X14313039Y-11590174D01*
X14313039Y-11590174D02*
X14313039Y-11637793D01*
X14313039Y-11637793D02*
X14303515Y-11675888D01*
X14303515Y-11675888D02*
X14293991Y-11694936D01*
X14293991Y-11694936D02*
X14284467Y-11704460D01*
X14284467Y-11704460D02*
X14265420Y-11713984D01*
X14265420Y-11713984D02*
X14246372Y-11713984D01*
X14246372Y-11713984D02*
X14227324Y-11704460D01*
X14227324Y-11704460D02*
X14217801Y-11694936D01*
X14217801Y-11694936D02*
X14208277Y-11675888D01*
X14208277Y-11675888D02*
X14198753Y-11637793D01*
X14198753Y-11637793D02*
X14198753Y-11590174D01*
X14198753Y-11590174D02*
X14208277Y-11552079D01*
X14208277Y-11552079D02*
X14217801Y-11533031D01*
X14217801Y-11533031D02*
X14227324Y-11523508D01*
X14227324Y-11523508D02*
X14246372Y-11513984D01*
X14398753Y-11694936D02*
X14408277Y-11704460D01*
X14408277Y-11704460D02*
X14398753Y-11713984D01*
X14398753Y-11713984D02*
X14389229Y-11704460D01*
X14389229Y-11704460D02*
X14398753Y-11694936D01*
X14398753Y-11694936D02*
X14398753Y-11713984D01*
X14474943Y-11513984D02*
X14598753Y-11513984D01*
X14598753Y-11513984D02*
X14532086Y-11590174D01*
X14532086Y-11590174D02*
X14560658Y-11590174D01*
X14560658Y-11590174D02*
X14579705Y-11599698D01*
X14579705Y-11599698D02*
X14589229Y-11609222D01*
X14589229Y-11609222D02*
X14598753Y-11628269D01*
X14598753Y-11628269D02*
X14598753Y-11675888D01*
X14598753Y-11675888D02*
X14589229Y-11694936D01*
X14589229Y-11694936D02*
X14579705Y-11704460D01*
X14579705Y-11704460D02*
X14560658Y-11713984D01*
X14560658Y-11713984D02*
X14503515Y-11713984D01*
X14503515Y-11713984D02*
X14484467Y-11704460D01*
X14484467Y-11704460D02*
X14474943Y-11694936D01*
X14722562Y-11513984D02*
X14741610Y-11513984D01*
X14741610Y-11513984D02*
X14760658Y-11523508D01*
X14760658Y-11523508D02*
X14770182Y-11533031D01*
X14770182Y-11533031D02*
X14779705Y-11552079D01*
X14779705Y-11552079D02*
X14789229Y-11590174D01*
X14789229Y-11590174D02*
X14789229Y-11637793D01*
X14789229Y-11637793D02*
X14779705Y-11675888D01*
X14779705Y-11675888D02*
X14770182Y-11694936D01*
X14770182Y-11694936D02*
X14760658Y-11704460D01*
X14760658Y-11704460D02*
X14741610Y-11713984D01*
X14741610Y-11713984D02*
X14722562Y-11713984D01*
X14722562Y-11713984D02*
X14703515Y-11704460D01*
X14703515Y-11704460D02*
X14693991Y-11694936D01*
X14693991Y-11694936D02*
X14684467Y-11675888D01*
X14684467Y-11675888D02*
X14674943Y-11637793D01*
X14674943Y-11637793D02*
X14674943Y-11590174D01*
X14674943Y-11590174D02*
X14684467Y-11552079D01*
X14684467Y-11552079D02*
X14693991Y-11533031D01*
X14693991Y-11533031D02*
X14703515Y-11523508D01*
X14703515Y-11523508D02*
X14722562Y-11513984D01*
X14913039Y-11513984D02*
X14932086Y-11513984D01*
X14932086Y-11513984D02*
X14951134Y-11523508D01*
X14951134Y-11523508D02*
X14960658Y-11533031D01*
X14960658Y-11533031D02*
X14970182Y-11552079D01*
X14970182Y-11552079D02*
X14979705Y-11590174D01*
X14979705Y-11590174D02*
X14979705Y-11637793D01*
X14979705Y-11637793D02*
X14970182Y-11675888D01*
X14970182Y-11675888D02*
X14960658Y-11694936D01*
X14960658Y-11694936D02*
X14951134Y-11704460D01*
X14951134Y-11704460D02*
X14932086Y-11713984D01*
X14932086Y-11713984D02*
X14913039Y-11713984D01*
X14913039Y-11713984D02*
X14893991Y-11704460D01*
X14893991Y-11704460D02*
X14884467Y-11694936D01*
X14884467Y-11694936D02*
X14874943Y-11675888D01*
X14874943Y-11675888D02*
X14865420Y-11637793D01*
X14865420Y-11637793D02*
X14865420Y-11590174D01*
X14865420Y-11590174D02*
X14874943Y-11552079D01*
X14874943Y-11552079D02*
X14884467Y-11533031D01*
X14884467Y-11533031D02*
X14893991Y-11523508D01*
X14893991Y-11523508D02*
X14913039Y-11513984D01*
X15065420Y-11713984D02*
X15065420Y-11580650D01*
X15065420Y-11599698D02*
X15074943Y-11590174D01*
X15074943Y-11590174D02*
X15093991Y-11580650D01*
X15093991Y-11580650D02*
X15122563Y-11580650D01*
X15122563Y-11580650D02*
X15141610Y-11590174D01*
X15141610Y-11590174D02*
X15151134Y-11609222D01*
X15151134Y-11609222D02*
X15151134Y-11713984D01*
X15151134Y-11609222D02*
X15160658Y-11590174D01*
X15160658Y-11590174D02*
X15179705Y-11580650D01*
X15179705Y-11580650D02*
X15208277Y-11580650D01*
X15208277Y-11580650D02*
X15227324Y-11590174D01*
X15227324Y-11590174D02*
X15236848Y-11609222D01*
X15236848Y-11609222D02*
X15236848Y-11713984D01*
X15332086Y-11713984D02*
X15332086Y-11580650D01*
X15332086Y-11599698D02*
X15341610Y-11590174D01*
X15341610Y-11590174D02*
X15360658Y-11580650D01*
X15360658Y-11580650D02*
X15389229Y-11580650D01*
X15389229Y-11580650D02*
X15408277Y-11590174D01*
X15408277Y-11590174D02*
X15417801Y-11609222D01*
X15417801Y-11609222D02*
X15417801Y-11713984D01*
X15417801Y-11609222D02*
X15427324Y-11590174D01*
X15427324Y-11590174D02*
X15446372Y-11580650D01*
X15446372Y-11580650D02*
X15474943Y-11580650D01*
X15474943Y-11580650D02*
X15493991Y-11590174D01*
X15493991Y-11590174D02*
X15503515Y-11609222D01*
X15503515Y-11609222D02*
X15503515Y-11713984D01*
X15893991Y-11504460D02*
X15722563Y-11761603D01*
X16151134Y-11513984D02*
X16170182Y-11513984D01*
X16170182Y-11513984D02*
X16189229Y-11523508D01*
X16189229Y-11523508D02*
X16198753Y-11533031D01*
X16198753Y-11533031D02*
X16208277Y-11552079D01*
X16208277Y-11552079D02*
X16217801Y-11590174D01*
X16217801Y-11590174D02*
X16217801Y-11637793D01*
X16217801Y-11637793D02*
X16208277Y-11675888D01*
X16208277Y-11675888D02*
X16198753Y-11694936D01*
X16198753Y-11694936D02*
X16189229Y-11704460D01*
X16189229Y-11704460D02*
X16170182Y-11713984D01*
X16170182Y-11713984D02*
X16151134Y-11713984D01*
X16151134Y-11713984D02*
X16132086Y-11704460D01*
X16132086Y-11704460D02*
X16122563Y-11694936D01*
X16122563Y-11694936D02*
X16113039Y-11675888D01*
X16113039Y-11675888D02*
X16103515Y-11637793D01*
X16103515Y-11637793D02*
X16103515Y-11590174D01*
X16103515Y-11590174D02*
X16113039Y-11552079D01*
X16113039Y-11552079D02*
X16122563Y-11533031D01*
X16122563Y-11533031D02*
X16132086Y-11523508D01*
X16132086Y-11523508D02*
X16151134Y-11513984D01*
X16303515Y-11694936D02*
X16313039Y-11704460D01*
X16313039Y-11704460D02*
X16303515Y-11713984D01*
X16303515Y-11713984D02*
X16293991Y-11704460D01*
X16293991Y-11704460D02*
X16303515Y-11694936D01*
X16303515Y-11694936D02*
X16303515Y-11713984D01*
X16436848Y-11513984D02*
X16455896Y-11513984D01*
X16455896Y-11513984D02*
X16474944Y-11523508D01*
X16474944Y-11523508D02*
X16484467Y-11533031D01*
X16484467Y-11533031D02*
X16493991Y-11552079D01*
X16493991Y-11552079D02*
X16503515Y-11590174D01*
X16503515Y-11590174D02*
X16503515Y-11637793D01*
X16503515Y-11637793D02*
X16493991Y-11675888D01*
X16493991Y-11675888D02*
X16484467Y-11694936D01*
X16484467Y-11694936D02*
X16474944Y-11704460D01*
X16474944Y-11704460D02*
X16455896Y-11713984D01*
X16455896Y-11713984D02*
X16436848Y-11713984D01*
X16436848Y-11713984D02*
X16417801Y-11704460D01*
X16417801Y-11704460D02*
X16408277Y-11694936D01*
X16408277Y-11694936D02*
X16398753Y-11675888D01*
X16398753Y-11675888D02*
X16389229Y-11637793D01*
X16389229Y-11637793D02*
X16389229Y-11590174D01*
X16389229Y-11590174D02*
X16398753Y-11552079D01*
X16398753Y-11552079D02*
X16408277Y-11533031D01*
X16408277Y-11533031D02*
X16417801Y-11523508D01*
X16417801Y-11523508D02*
X16436848Y-11513984D01*
X16693991Y-11713984D02*
X16579706Y-11713984D01*
X16636848Y-11713984D02*
X16636848Y-11513984D01*
X16636848Y-11513984D02*
X16617801Y-11542555D01*
X16617801Y-11542555D02*
X16598753Y-11561603D01*
X16598753Y-11561603D02*
X16579706Y-11571127D01*
X16884468Y-11713984D02*
X16770182Y-11713984D01*
X16827325Y-11713984D02*
X16827325Y-11513984D01*
X16827325Y-11513984D02*
X16808277Y-11542555D01*
X16808277Y-11542555D02*
X16789229Y-11561603D01*
X16789229Y-11561603D02*
X16770182Y-11571127D01*
X16998753Y-11599698D02*
X16979706Y-11590174D01*
X16979706Y-11590174D02*
X16970182Y-11580650D01*
X16970182Y-11580650D02*
X16960658Y-11561603D01*
X16960658Y-11561603D02*
X16960658Y-11552079D01*
X16960658Y-11552079D02*
X16970182Y-11533031D01*
X16970182Y-11533031D02*
X16979706Y-11523508D01*
X16979706Y-11523508D02*
X16998753Y-11513984D01*
X16998753Y-11513984D02*
X17036849Y-11513984D01*
X17036849Y-11513984D02*
X17055896Y-11523508D01*
X17055896Y-11523508D02*
X17065420Y-11533031D01*
X17065420Y-11533031D02*
X17074944Y-11552079D01*
X17074944Y-11552079D02*
X17074944Y-11561603D01*
X17074944Y-11561603D02*
X17065420Y-11580650D01*
X17065420Y-11580650D02*
X17055896Y-11590174D01*
X17055896Y-11590174D02*
X17036849Y-11599698D01*
X17036849Y-11599698D02*
X16998753Y-11599698D01*
X16998753Y-11599698D02*
X16979706Y-11609222D01*
X16979706Y-11609222D02*
X16970182Y-11618746D01*
X16970182Y-11618746D02*
X16960658Y-11637793D01*
X16960658Y-11637793D02*
X16960658Y-11675888D01*
X16960658Y-11675888D02*
X16970182Y-11694936D01*
X16970182Y-11694936D02*
X16979706Y-11704460D01*
X16979706Y-11704460D02*
X16998753Y-11713984D01*
X16998753Y-11713984D02*
X17036849Y-11713984D01*
X17036849Y-11713984D02*
X17055896Y-11704460D01*
X17055896Y-11704460D02*
X17065420Y-11694936D01*
X17065420Y-11694936D02*
X17074944Y-11675888D01*
X17074944Y-11675888D02*
X17074944Y-11637793D01*
X17074944Y-11637793D02*
X17065420Y-11618746D01*
X17065420Y-11618746D02*
X17055896Y-11609222D01*
X17055896Y-11609222D02*
X17036849Y-11599698D01*
X17151134Y-11513984D02*
X17151134Y-11552079D01*
X17227325Y-11513984D02*
X17227325Y-11552079D01*
X17522563Y-11790174D02*
X17513039Y-11780650D01*
X17513039Y-11780650D02*
X17493991Y-11752079D01*
X17493991Y-11752079D02*
X17484468Y-11733031D01*
X17484468Y-11733031D02*
X17474944Y-11704460D01*
X17474944Y-11704460D02*
X17465420Y-11656841D01*
X17465420Y-11656841D02*
X17465420Y-11618746D01*
X17465420Y-11618746D02*
X17474944Y-11571127D01*
X17474944Y-11571127D02*
X17484468Y-11542555D01*
X17484468Y-11542555D02*
X17493991Y-11523508D01*
X17493991Y-11523508D02*
X17513039Y-11494936D01*
X17513039Y-11494936D02*
X17522563Y-11485412D01*
X17703515Y-11713984D02*
X17589230Y-11713984D01*
X17646372Y-11713984D02*
X17646372Y-11513984D01*
X17646372Y-11513984D02*
X17627325Y-11542555D01*
X17627325Y-11542555D02*
X17608277Y-11561603D01*
X17608277Y-11561603D02*
X17589230Y-11571127D01*
X17874944Y-11513984D02*
X17836849Y-11513984D01*
X17836849Y-11513984D02*
X17817801Y-11523508D01*
X17817801Y-11523508D02*
X17808277Y-11533031D01*
X17808277Y-11533031D02*
X17789230Y-11561603D01*
X17789230Y-11561603D02*
X17779706Y-11599698D01*
X17779706Y-11599698D02*
X17779706Y-11675888D01*
X17779706Y-11675888D02*
X17789230Y-11694936D01*
X17789230Y-11694936D02*
X17798753Y-11704460D01*
X17798753Y-11704460D02*
X17817801Y-11713984D01*
X17817801Y-11713984D02*
X17855896Y-11713984D01*
X17855896Y-11713984D02*
X17874944Y-11704460D01*
X17874944Y-11704460D02*
X17884468Y-11694936D01*
X17884468Y-11694936D02*
X17893991Y-11675888D01*
X17893991Y-11675888D02*
X17893991Y-11628269D01*
X17893991Y-11628269D02*
X17884468Y-11609222D01*
X17884468Y-11609222D02*
X17874944Y-11599698D01*
X17874944Y-11599698D02*
X17855896Y-11590174D01*
X17855896Y-11590174D02*
X17817801Y-11590174D01*
X17817801Y-11590174D02*
X17798753Y-11599698D01*
X17798753Y-11599698D02*
X17789230Y-11609222D01*
X17789230Y-11609222D02*
X17779706Y-11628269D01*
X18132087Y-11713984D02*
X18132087Y-11513984D01*
X18217801Y-11713984D02*
X18217801Y-11609222D01*
X18217801Y-11609222D02*
X18208277Y-11590174D01*
X18208277Y-11590174D02*
X18189230Y-11580650D01*
X18189230Y-11580650D02*
X18160658Y-11580650D01*
X18160658Y-11580650D02*
X18141611Y-11590174D01*
X18141611Y-11590174D02*
X18132087Y-11599698D01*
X18341611Y-11713984D02*
X18322563Y-11704460D01*
X18322563Y-11704460D02*
X18313039Y-11694936D01*
X18313039Y-11694936D02*
X18303515Y-11675888D01*
X18303515Y-11675888D02*
X18303515Y-11618746D01*
X18303515Y-11618746D02*
X18313039Y-11599698D01*
X18313039Y-11599698D02*
X18322563Y-11590174D01*
X18322563Y-11590174D02*
X18341611Y-11580650D01*
X18341611Y-11580650D02*
X18370182Y-11580650D01*
X18370182Y-11580650D02*
X18389230Y-11590174D01*
X18389230Y-11590174D02*
X18398753Y-11599698D01*
X18398753Y-11599698D02*
X18408277Y-11618746D01*
X18408277Y-11618746D02*
X18408277Y-11675888D01*
X18408277Y-11675888D02*
X18398753Y-11694936D01*
X18398753Y-11694936D02*
X18389230Y-11704460D01*
X18389230Y-11704460D02*
X18370182Y-11713984D01*
X18370182Y-11713984D02*
X18341611Y-11713984D01*
X18522563Y-11713984D02*
X18503515Y-11704460D01*
X18503515Y-11704460D02*
X18493992Y-11685412D01*
X18493992Y-11685412D02*
X18493992Y-11513984D01*
X18674944Y-11704460D02*
X18655896Y-11713984D01*
X18655896Y-11713984D02*
X18617801Y-11713984D01*
X18617801Y-11713984D02*
X18598753Y-11704460D01*
X18598753Y-11704460D02*
X18589230Y-11685412D01*
X18589230Y-11685412D02*
X18589230Y-11609222D01*
X18589230Y-11609222D02*
X18598753Y-11590174D01*
X18598753Y-11590174D02*
X18617801Y-11580650D01*
X18617801Y-11580650D02*
X18655896Y-11580650D01*
X18655896Y-11580650D02*
X18674944Y-11590174D01*
X18674944Y-11590174D02*
X18684468Y-11609222D01*
X18684468Y-11609222D02*
X18684468Y-11628269D01*
X18684468Y-11628269D02*
X18589230Y-11647317D01*
X18760658Y-11704460D02*
X18779706Y-11713984D01*
X18779706Y-11713984D02*
X18817801Y-11713984D01*
X18817801Y-11713984D02*
X18836849Y-11704460D01*
X18836849Y-11704460D02*
X18846373Y-11685412D01*
X18846373Y-11685412D02*
X18846373Y-11675888D01*
X18846373Y-11675888D02*
X18836849Y-11656841D01*
X18836849Y-11656841D02*
X18817801Y-11647317D01*
X18817801Y-11647317D02*
X18789230Y-11647317D01*
X18789230Y-11647317D02*
X18770182Y-11637793D01*
X18770182Y-11637793D02*
X18760658Y-11618746D01*
X18760658Y-11618746D02*
X18760658Y-11609222D01*
X18760658Y-11609222D02*
X18770182Y-11590174D01*
X18770182Y-11590174D02*
X18789230Y-11580650D01*
X18789230Y-11580650D02*
X18817801Y-11580650D01*
X18817801Y-11580650D02*
X18836849Y-11590174D01*
X18913039Y-11790174D02*
X18922563Y-11780650D01*
X18922563Y-11780650D02*
X18941611Y-11752079D01*
X18941611Y-11752079D02*
X18951134Y-11733031D01*
X18951134Y-11733031D02*
X18960658Y-11704460D01*
X18960658Y-11704460D02*
X18970182Y-11656841D01*
X18970182Y-11656841D02*
X18970182Y-11618746D01*
X18970182Y-11618746D02*
X18960658Y-11571127D01*
X18960658Y-11571127D02*
X18951134Y-11542555D01*
X18951134Y-11542555D02*
X18941611Y-11523508D01*
X18941611Y-11523508D02*
X18922563Y-11494936D01*
X18922563Y-11494936D02*
X18913039Y-11485412D01*
D12*
X13947500Y-11886500D02*
G75*
G02*
X13882500Y-11886500I-32500J0D01*
G01*
X13882500Y-11886500D02*
G75*
G02*
X13947500Y-11886500I32500J0D01*
G01*
D11*
X14246372Y-11777984D02*
X14265420Y-11777984D01*
X14265420Y-11777984D02*
X14284467Y-11787508D01*
X14284467Y-11787508D02*
X14293991Y-11797031D01*
X14293991Y-11797031D02*
X14303515Y-11816079D01*
X14303515Y-11816079D02*
X14313039Y-11854174D01*
X14313039Y-11854174D02*
X14313039Y-11901793D01*
X14313039Y-11901793D02*
X14303515Y-11939888D01*
X14303515Y-11939888D02*
X14293991Y-11958936D01*
X14293991Y-11958936D02*
X14284467Y-11968460D01*
X14284467Y-11968460D02*
X14265420Y-11977984D01*
X14265420Y-11977984D02*
X14246372Y-11977984D01*
X14246372Y-11977984D02*
X14227324Y-11968460D01*
X14227324Y-11968460D02*
X14217801Y-11958936D01*
X14217801Y-11958936D02*
X14208277Y-11939888D01*
X14208277Y-11939888D02*
X14198753Y-11901793D01*
X14198753Y-11901793D02*
X14198753Y-11854174D01*
X14198753Y-11854174D02*
X14208277Y-11816079D01*
X14208277Y-11816079D02*
X14217801Y-11797031D01*
X14217801Y-11797031D02*
X14227324Y-11787508D01*
X14227324Y-11787508D02*
X14246372Y-11777984D01*
X14398753Y-11958936D02*
X14408277Y-11968460D01*
X14408277Y-11968460D02*
X14398753Y-11977984D01*
X14398753Y-11977984D02*
X14389229Y-11968460D01*
X14389229Y-11968460D02*
X14398753Y-11958936D01*
X14398753Y-11958936D02*
X14398753Y-11977984D01*
X14579705Y-11777984D02*
X14541610Y-11777984D01*
X14541610Y-11777984D02*
X14522562Y-11787508D01*
X14522562Y-11787508D02*
X14513039Y-11797031D01*
X14513039Y-11797031D02*
X14493991Y-11825603D01*
X14493991Y-11825603D02*
X14484467Y-11863698D01*
X14484467Y-11863698D02*
X14484467Y-11939888D01*
X14484467Y-11939888D02*
X14493991Y-11958936D01*
X14493991Y-11958936D02*
X14503515Y-11968460D01*
X14503515Y-11968460D02*
X14522562Y-11977984D01*
X14522562Y-11977984D02*
X14560658Y-11977984D01*
X14560658Y-11977984D02*
X14579705Y-11968460D01*
X14579705Y-11968460D02*
X14589229Y-11958936D01*
X14589229Y-11958936D02*
X14598753Y-11939888D01*
X14598753Y-11939888D02*
X14598753Y-11892269D01*
X14598753Y-11892269D02*
X14589229Y-11873222D01*
X14589229Y-11873222D02*
X14579705Y-11863698D01*
X14579705Y-11863698D02*
X14560658Y-11854174D01*
X14560658Y-11854174D02*
X14522562Y-11854174D01*
X14522562Y-11854174D02*
X14503515Y-11863698D01*
X14503515Y-11863698D02*
X14493991Y-11873222D01*
X14493991Y-11873222D02*
X14484467Y-11892269D01*
X14779705Y-11777984D02*
X14684467Y-11777984D01*
X14684467Y-11777984D02*
X14674943Y-11873222D01*
X14674943Y-11873222D02*
X14684467Y-11863698D01*
X14684467Y-11863698D02*
X14703515Y-11854174D01*
X14703515Y-11854174D02*
X14751134Y-11854174D01*
X14751134Y-11854174D02*
X14770182Y-11863698D01*
X14770182Y-11863698D02*
X14779705Y-11873222D01*
X14779705Y-11873222D02*
X14789229Y-11892269D01*
X14789229Y-11892269D02*
X14789229Y-11939888D01*
X14789229Y-11939888D02*
X14779705Y-11958936D01*
X14779705Y-11958936D02*
X14770182Y-11968460D01*
X14770182Y-11968460D02*
X14751134Y-11977984D01*
X14751134Y-11977984D02*
X14703515Y-11977984D01*
X14703515Y-11977984D02*
X14684467Y-11968460D01*
X14684467Y-11968460D02*
X14674943Y-11958936D01*
X14913039Y-11777984D02*
X14932086Y-11777984D01*
X14932086Y-11777984D02*
X14951134Y-11787508D01*
X14951134Y-11787508D02*
X14960658Y-11797031D01*
X14960658Y-11797031D02*
X14970182Y-11816079D01*
X14970182Y-11816079D02*
X14979705Y-11854174D01*
X14979705Y-11854174D02*
X14979705Y-11901793D01*
X14979705Y-11901793D02*
X14970182Y-11939888D01*
X14970182Y-11939888D02*
X14960658Y-11958936D01*
X14960658Y-11958936D02*
X14951134Y-11968460D01*
X14951134Y-11968460D02*
X14932086Y-11977984D01*
X14932086Y-11977984D02*
X14913039Y-11977984D01*
X14913039Y-11977984D02*
X14893991Y-11968460D01*
X14893991Y-11968460D02*
X14884467Y-11958936D01*
X14884467Y-11958936D02*
X14874943Y-11939888D01*
X14874943Y-11939888D02*
X14865420Y-11901793D01*
X14865420Y-11901793D02*
X14865420Y-11854174D01*
X14865420Y-11854174D02*
X14874943Y-11816079D01*
X14874943Y-11816079D02*
X14884467Y-11797031D01*
X14884467Y-11797031D02*
X14893991Y-11787508D01*
X14893991Y-11787508D02*
X14913039Y-11777984D01*
X15065420Y-11977984D02*
X15065420Y-11844650D01*
X15065420Y-11863698D02*
X15074943Y-11854174D01*
X15074943Y-11854174D02*
X15093991Y-11844650D01*
X15093991Y-11844650D02*
X15122563Y-11844650D01*
X15122563Y-11844650D02*
X15141610Y-11854174D01*
X15141610Y-11854174D02*
X15151134Y-11873222D01*
X15151134Y-11873222D02*
X15151134Y-11977984D01*
X15151134Y-11873222D02*
X15160658Y-11854174D01*
X15160658Y-11854174D02*
X15179705Y-11844650D01*
X15179705Y-11844650D02*
X15208277Y-11844650D01*
X15208277Y-11844650D02*
X15227324Y-11854174D01*
X15227324Y-11854174D02*
X15236848Y-11873222D01*
X15236848Y-11873222D02*
X15236848Y-11977984D01*
X15332086Y-11977984D02*
X15332086Y-11844650D01*
X15332086Y-11863698D02*
X15341610Y-11854174D01*
X15341610Y-11854174D02*
X15360658Y-11844650D01*
X15360658Y-11844650D02*
X15389229Y-11844650D01*
X15389229Y-11844650D02*
X15408277Y-11854174D01*
X15408277Y-11854174D02*
X15417801Y-11873222D01*
X15417801Y-11873222D02*
X15417801Y-11977984D01*
X15417801Y-11873222D02*
X15427324Y-11854174D01*
X15427324Y-11854174D02*
X15446372Y-11844650D01*
X15446372Y-11844650D02*
X15474943Y-11844650D01*
X15474943Y-11844650D02*
X15493991Y-11854174D01*
X15493991Y-11854174D02*
X15503515Y-11873222D01*
X15503515Y-11873222D02*
X15503515Y-11977984D01*
X15893991Y-11768460D02*
X15722563Y-12025603D01*
X16151134Y-11777984D02*
X16170182Y-11777984D01*
X16170182Y-11777984D02*
X16189229Y-11787508D01*
X16189229Y-11787508D02*
X16198753Y-11797031D01*
X16198753Y-11797031D02*
X16208277Y-11816079D01*
X16208277Y-11816079D02*
X16217801Y-11854174D01*
X16217801Y-11854174D02*
X16217801Y-11901793D01*
X16217801Y-11901793D02*
X16208277Y-11939888D01*
X16208277Y-11939888D02*
X16198753Y-11958936D01*
X16198753Y-11958936D02*
X16189229Y-11968460D01*
X16189229Y-11968460D02*
X16170182Y-11977984D01*
X16170182Y-11977984D02*
X16151134Y-11977984D01*
X16151134Y-11977984D02*
X16132086Y-11968460D01*
X16132086Y-11968460D02*
X16122563Y-11958936D01*
X16122563Y-11958936D02*
X16113039Y-11939888D01*
X16113039Y-11939888D02*
X16103515Y-11901793D01*
X16103515Y-11901793D02*
X16103515Y-11854174D01*
X16103515Y-11854174D02*
X16113039Y-11816079D01*
X16113039Y-11816079D02*
X16122563Y-11797031D01*
X16122563Y-11797031D02*
X16132086Y-11787508D01*
X16132086Y-11787508D02*
X16151134Y-11777984D01*
X16303515Y-11958936D02*
X16313039Y-11968460D01*
X16313039Y-11968460D02*
X16303515Y-11977984D01*
X16303515Y-11977984D02*
X16293991Y-11968460D01*
X16293991Y-11968460D02*
X16303515Y-11958936D01*
X16303515Y-11958936D02*
X16303515Y-11977984D01*
X16436848Y-11777984D02*
X16455896Y-11777984D01*
X16455896Y-11777984D02*
X16474944Y-11787508D01*
X16474944Y-11787508D02*
X16484467Y-11797031D01*
X16484467Y-11797031D02*
X16493991Y-11816079D01*
X16493991Y-11816079D02*
X16503515Y-11854174D01*
X16503515Y-11854174D02*
X16503515Y-11901793D01*
X16503515Y-11901793D02*
X16493991Y-11939888D01*
X16493991Y-11939888D02*
X16484467Y-11958936D01*
X16484467Y-11958936D02*
X16474944Y-11968460D01*
X16474944Y-11968460D02*
X16455896Y-11977984D01*
X16455896Y-11977984D02*
X16436848Y-11977984D01*
X16436848Y-11977984D02*
X16417801Y-11968460D01*
X16417801Y-11968460D02*
X16408277Y-11958936D01*
X16408277Y-11958936D02*
X16398753Y-11939888D01*
X16398753Y-11939888D02*
X16389229Y-11901793D01*
X16389229Y-11901793D02*
X16389229Y-11854174D01*
X16389229Y-11854174D02*
X16398753Y-11816079D01*
X16398753Y-11816079D02*
X16408277Y-11797031D01*
X16408277Y-11797031D02*
X16417801Y-11787508D01*
X16417801Y-11787508D02*
X16436848Y-11777984D01*
X16579706Y-11797031D02*
X16589229Y-11787508D01*
X16589229Y-11787508D02*
X16608277Y-11777984D01*
X16608277Y-11777984D02*
X16655896Y-11777984D01*
X16655896Y-11777984D02*
X16674944Y-11787508D01*
X16674944Y-11787508D02*
X16684467Y-11797031D01*
X16684467Y-11797031D02*
X16693991Y-11816079D01*
X16693991Y-11816079D02*
X16693991Y-11835127D01*
X16693991Y-11835127D02*
X16684467Y-11863698D01*
X16684467Y-11863698D02*
X16570182Y-11977984D01*
X16570182Y-11977984D02*
X16693991Y-11977984D01*
X16874944Y-11777984D02*
X16779706Y-11777984D01*
X16779706Y-11777984D02*
X16770182Y-11873222D01*
X16770182Y-11873222D02*
X16779706Y-11863698D01*
X16779706Y-11863698D02*
X16798753Y-11854174D01*
X16798753Y-11854174D02*
X16846372Y-11854174D01*
X16846372Y-11854174D02*
X16865420Y-11863698D01*
X16865420Y-11863698D02*
X16874944Y-11873222D01*
X16874944Y-11873222D02*
X16884468Y-11892269D01*
X16884468Y-11892269D02*
X16884468Y-11939888D01*
X16884468Y-11939888D02*
X16874944Y-11958936D01*
X16874944Y-11958936D02*
X16865420Y-11968460D01*
X16865420Y-11968460D02*
X16846372Y-11977984D01*
X16846372Y-11977984D02*
X16798753Y-11977984D01*
X16798753Y-11977984D02*
X16779706Y-11968460D01*
X16779706Y-11968460D02*
X16770182Y-11958936D01*
X17055896Y-11777984D02*
X17017801Y-11777984D01*
X17017801Y-11777984D02*
X16998753Y-11787508D01*
X16998753Y-11787508D02*
X16989229Y-11797031D01*
X16989229Y-11797031D02*
X16970182Y-11825603D01*
X16970182Y-11825603D02*
X16960658Y-11863698D01*
X16960658Y-11863698D02*
X16960658Y-11939888D01*
X16960658Y-11939888D02*
X16970182Y-11958936D01*
X16970182Y-11958936D02*
X16979706Y-11968460D01*
X16979706Y-11968460D02*
X16998753Y-11977984D01*
X16998753Y-11977984D02*
X17036849Y-11977984D01*
X17036849Y-11977984D02*
X17055896Y-11968460D01*
X17055896Y-11968460D02*
X17065420Y-11958936D01*
X17065420Y-11958936D02*
X17074944Y-11939888D01*
X17074944Y-11939888D02*
X17074944Y-11892269D01*
X17074944Y-11892269D02*
X17065420Y-11873222D01*
X17065420Y-11873222D02*
X17055896Y-11863698D01*
X17055896Y-11863698D02*
X17036849Y-11854174D01*
X17036849Y-11854174D02*
X16998753Y-11854174D01*
X16998753Y-11854174D02*
X16979706Y-11863698D01*
X16979706Y-11863698D02*
X16970182Y-11873222D01*
X16970182Y-11873222D02*
X16960658Y-11892269D01*
X17151134Y-11777984D02*
X17151134Y-11816079D01*
X17227325Y-11777984D02*
X17227325Y-11816079D01*
X17522563Y-12054174D02*
X17513039Y-12044650D01*
X17513039Y-12044650D02*
X17493991Y-12016079D01*
X17493991Y-12016079D02*
X17484468Y-11997031D01*
X17484468Y-11997031D02*
X17474944Y-11968460D01*
X17474944Y-11968460D02*
X17465420Y-11920841D01*
X17465420Y-11920841D02*
X17465420Y-11882746D01*
X17465420Y-11882746D02*
X17474944Y-11835127D01*
X17474944Y-11835127D02*
X17484468Y-11806555D01*
X17484468Y-11806555D02*
X17493991Y-11787508D01*
X17493991Y-11787508D02*
X17513039Y-11758936D01*
X17513039Y-11758936D02*
X17522563Y-11749412D01*
X17627325Y-11863698D02*
X17608277Y-11854174D01*
X17608277Y-11854174D02*
X17598753Y-11844650D01*
X17598753Y-11844650D02*
X17589230Y-11825603D01*
X17589230Y-11825603D02*
X17589230Y-11816079D01*
X17589230Y-11816079D02*
X17598753Y-11797031D01*
X17598753Y-11797031D02*
X17608277Y-11787508D01*
X17608277Y-11787508D02*
X17627325Y-11777984D01*
X17627325Y-11777984D02*
X17665420Y-11777984D01*
X17665420Y-11777984D02*
X17684468Y-11787508D01*
X17684468Y-11787508D02*
X17693991Y-11797031D01*
X17693991Y-11797031D02*
X17703515Y-11816079D01*
X17703515Y-11816079D02*
X17703515Y-11825603D01*
X17703515Y-11825603D02*
X17693991Y-11844650D01*
X17693991Y-11844650D02*
X17684468Y-11854174D01*
X17684468Y-11854174D02*
X17665420Y-11863698D01*
X17665420Y-11863698D02*
X17627325Y-11863698D01*
X17627325Y-11863698D02*
X17608277Y-11873222D01*
X17608277Y-11873222D02*
X17598753Y-11882746D01*
X17598753Y-11882746D02*
X17589230Y-11901793D01*
X17589230Y-11901793D02*
X17589230Y-11939888D01*
X17589230Y-11939888D02*
X17598753Y-11958936D01*
X17598753Y-11958936D02*
X17608277Y-11968460D01*
X17608277Y-11968460D02*
X17627325Y-11977984D01*
X17627325Y-11977984D02*
X17665420Y-11977984D01*
X17665420Y-11977984D02*
X17684468Y-11968460D01*
X17684468Y-11968460D02*
X17693991Y-11958936D01*
X17693991Y-11958936D02*
X17703515Y-11939888D01*
X17703515Y-11939888D02*
X17703515Y-11901793D01*
X17703515Y-11901793D02*
X17693991Y-11882746D01*
X17693991Y-11882746D02*
X17684468Y-11873222D01*
X17684468Y-11873222D02*
X17665420Y-11863698D01*
X17941611Y-11977984D02*
X17941611Y-11777984D01*
X18027325Y-11977984D02*
X18027325Y-11873222D01*
X18027325Y-11873222D02*
X18017801Y-11854174D01*
X18017801Y-11854174D02*
X17998753Y-11844650D01*
X17998753Y-11844650D02*
X17970182Y-11844650D01*
X17970182Y-11844650D02*
X17951134Y-11854174D01*
X17951134Y-11854174D02*
X17941611Y-11863698D01*
X18151134Y-11977984D02*
X18132087Y-11968460D01*
X18132087Y-11968460D02*
X18122563Y-11958936D01*
X18122563Y-11958936D02*
X18113039Y-11939888D01*
X18113039Y-11939888D02*
X18113039Y-11882746D01*
X18113039Y-11882746D02*
X18122563Y-11863698D01*
X18122563Y-11863698D02*
X18132087Y-11854174D01*
X18132087Y-11854174D02*
X18151134Y-11844650D01*
X18151134Y-11844650D02*
X18179706Y-11844650D01*
X18179706Y-11844650D02*
X18198753Y-11854174D01*
X18198753Y-11854174D02*
X18208277Y-11863698D01*
X18208277Y-11863698D02*
X18217801Y-11882746D01*
X18217801Y-11882746D02*
X18217801Y-11939888D01*
X18217801Y-11939888D02*
X18208277Y-11958936D01*
X18208277Y-11958936D02*
X18198753Y-11968460D01*
X18198753Y-11968460D02*
X18179706Y-11977984D01*
X18179706Y-11977984D02*
X18151134Y-11977984D01*
X18332087Y-11977984D02*
X18313039Y-11968460D01*
X18313039Y-11968460D02*
X18303515Y-11949412D01*
X18303515Y-11949412D02*
X18303515Y-11777984D01*
X18484468Y-11968460D02*
X18465420Y-11977984D01*
X18465420Y-11977984D02*
X18427325Y-11977984D01*
X18427325Y-11977984D02*
X18408277Y-11968460D01*
X18408277Y-11968460D02*
X18398753Y-11949412D01*
X18398753Y-11949412D02*
X18398753Y-11873222D01*
X18398753Y-11873222D02*
X18408277Y-11854174D01*
X18408277Y-11854174D02*
X18427325Y-11844650D01*
X18427325Y-11844650D02*
X18465420Y-11844650D01*
X18465420Y-11844650D02*
X18484468Y-11854174D01*
X18484468Y-11854174D02*
X18493992Y-11873222D01*
X18493992Y-11873222D02*
X18493992Y-11892269D01*
X18493992Y-11892269D02*
X18398753Y-11911317D01*
X18570182Y-11968460D02*
X18589230Y-11977984D01*
X18589230Y-11977984D02*
X18627325Y-11977984D01*
X18627325Y-11977984D02*
X18646373Y-11968460D01*
X18646373Y-11968460D02*
X18655896Y-11949412D01*
X18655896Y-11949412D02*
X18655896Y-11939888D01*
X18655896Y-11939888D02*
X18646373Y-11920841D01*
X18646373Y-11920841D02*
X18627325Y-11911317D01*
X18627325Y-11911317D02*
X18598753Y-11911317D01*
X18598753Y-11911317D02*
X18579706Y-11901793D01*
X18579706Y-11901793D02*
X18570182Y-11882746D01*
X18570182Y-11882746D02*
X18570182Y-11873222D01*
X18570182Y-11873222D02*
X18579706Y-11854174D01*
X18579706Y-11854174D02*
X18598753Y-11844650D01*
X18598753Y-11844650D02*
X18627325Y-11844650D01*
X18627325Y-11844650D02*
X18646373Y-11854174D01*
X18722563Y-12054174D02*
X18732087Y-12044650D01*
X18732087Y-12044650D02*
X18751134Y-12016079D01*
X18751134Y-12016079D02*
X18760658Y-11997031D01*
X18760658Y-11997031D02*
X18770182Y-11968460D01*
X18770182Y-11968460D02*
X18779706Y-11920841D01*
X18779706Y-11920841D02*
X18779706Y-11882746D01*
X18779706Y-11882746D02*
X18770182Y-11835127D01*
X18770182Y-11835127D02*
X18760658Y-11806555D01*
X18760658Y-11806555D02*
X18751134Y-11787508D01*
X18751134Y-11787508D02*
X18732087Y-11758936D01*
X18732087Y-11758936D02*
X18722563Y-11749412D01*
M02*
