G04 #@! TF.GenerationSoftware,KiCad,Pcbnew,8.0.7-8.0.7-0~ubuntu24.04.1*
G04 #@! TF.CreationDate,2024-12-31T11:09:28-07:00*
G04 #@! TF.ProjectId,Sensor Board,53656e73-6f72-4204-926f-6172642e6b69,rev?*
G04 #@! TF.SameCoordinates,Original*
G04 #@! TF.FileFunction,Legend,Top*
G04 #@! TF.FilePolarity,Positive*
%FSLAX46Y46*%
G04 Gerber Fmt 4.6, Leading zero omitted, Abs format (unit mm)*
G04 Created by KiCad (PCBNEW 8.0.7-8.0.7-0~ubuntu24.04.1) date 2024-12-31 11:09:28*
%MOMM*%
%LPD*%
G01*
G04 APERTURE LIST*
G04 Aperture macros list*
%AMRoundRect*
0 Rectangle with rounded corners*
0 $1 Rounding radius*
0 $2 $3 $4 $5 $6 $7 $8 $9 X,Y pos of 4 corners*
0 Add a 4 corners polygon primitive as box body*
4,1,4,$2,$3,$4,$5,$6,$7,$8,$9,$2,$3,0*
0 Add four circle primitives for the rounded corners*
1,1,$1+$1,$2,$3*
1,1,$1+$1,$4,$5*
1,1,$1+$1,$6,$7*
1,1,$1+$1,$8,$9*
0 Add four rect primitives between the rounded corners*
20,1,$1+$1,$2,$3,$4,$5,0*
20,1,$1+$1,$4,$5,$6,$7,0*
20,1,$1+$1,$6,$7,$8,$9,0*
20,1,$1+$1,$8,$9,$2,$3,0*%
G04 Aperture macros list end*
%ADD10C,0.150000*%
%ADD11C,0.120000*%
%ADD12RoundRect,0.050000X0.500000X-0.500000X0.500000X0.500000X-0.500000X0.500000X-0.500000X-0.500000X0*%
%ADD13O,1.100000X1.100000*%
%ADD14RoundRect,0.175000X-0.175000X-0.650000X0.175000X-0.650000X0.175000X0.650000X-0.175000X0.650000X0*%
%ADD15RoundRect,0.270833X-0.379167X-0.679167X0.379167X-0.679167X0.379167X0.679167X-0.379167X0.679167X0*%
%ADD16RoundRect,0.050000X-0.500000X0.500000X-0.500000X-0.500000X0.500000X-0.500000X0.500000X0.500000X0*%
%ADD17RoundRect,0.050000X0.220000X-0.115000X0.220000X0.115000X-0.220000X0.115000X-0.220000X-0.115000X0*%
%ADD18RoundRect,0.050000X0.170000X-0.115000X0.170000X0.115000X-0.170000X0.115000X-0.170000X-0.115000X0*%
%ADD19RoundRect,0.050000X-0.220000X0.115000X-0.220000X-0.115000X0.220000X-0.115000X0.220000X0.115000X0*%
%ADD20RoundRect,0.050000X-0.170000X0.115000X-0.170000X-0.115000X0.170000X-0.115000X0.170000X0.115000X0*%
G04 APERTURE END LIST*
D10*
X140189160Y-103765057D02*
X140236779Y-103717438D01*
X140236779Y-103717438D02*
X140332017Y-103669819D01*
X140332017Y-103669819D02*
X140570112Y-103669819D01*
X140570112Y-103669819D02*
X140665350Y-103717438D01*
X140665350Y-103717438D02*
X140712969Y-103765057D01*
X140712969Y-103765057D02*
X140760588Y-103860295D01*
X140760588Y-103860295D02*
X140760588Y-103955533D01*
X140760588Y-103955533D02*
X140712969Y-104098390D01*
X140712969Y-104098390D02*
X140141541Y-104669819D01*
X140141541Y-104669819D02*
X140760588Y-104669819D01*
X143343445Y-103990057D02*
X143248207Y-103942438D01*
X143248207Y-103942438D02*
X143152969Y-103847200D01*
X143152969Y-103847200D02*
X143010112Y-103704342D01*
X143010112Y-103704342D02*
X142914874Y-103656723D01*
X142914874Y-103656723D02*
X142819636Y-103656723D01*
X142867255Y-103894819D02*
X142772017Y-103847200D01*
X142772017Y-103847200D02*
X142676779Y-103751961D01*
X142676779Y-103751961D02*
X142629160Y-103561485D01*
X142629160Y-103561485D02*
X142629160Y-103228152D01*
X142629160Y-103228152D02*
X142676779Y-103037676D01*
X142676779Y-103037676D02*
X142772017Y-102942438D01*
X142772017Y-102942438D02*
X142867255Y-102894819D01*
X142867255Y-102894819D02*
X143057731Y-102894819D01*
X143057731Y-102894819D02*
X143152969Y-102942438D01*
X143152969Y-102942438D02*
X143248207Y-103037676D01*
X143248207Y-103037676D02*
X143295826Y-103228152D01*
X143295826Y-103228152D02*
X143295826Y-103561485D01*
X143295826Y-103561485D02*
X143248207Y-103751961D01*
X143248207Y-103751961D02*
X143152969Y-103847200D01*
X143152969Y-103847200D02*
X143057731Y-103894819D01*
X143057731Y-103894819D02*
X142867255Y-103894819D01*
X143629160Y-103228152D02*
X143819636Y-103894819D01*
X143819636Y-103894819D02*
X144010112Y-103418628D01*
X144010112Y-103418628D02*
X144200588Y-103894819D01*
X144200588Y-103894819D02*
X144391064Y-103228152D01*
X144772017Y-103894819D02*
X144772017Y-103228152D01*
X144772017Y-102894819D02*
X144724398Y-102942438D01*
X144724398Y-102942438D02*
X144772017Y-102990057D01*
X144772017Y-102990057D02*
X144819636Y-102942438D01*
X144819636Y-102942438D02*
X144772017Y-102894819D01*
X144772017Y-102894819D02*
X144772017Y-102990057D01*
X145248207Y-103894819D02*
X145248207Y-103228152D01*
X145248207Y-102894819D02*
X145200588Y-102942438D01*
X145200588Y-102942438D02*
X145248207Y-102990057D01*
X145248207Y-102990057D02*
X145295826Y-102942438D01*
X145295826Y-102942438D02*
X145248207Y-102894819D01*
X145248207Y-102894819D02*
X145248207Y-102990057D01*
X146152968Y-103847200D02*
X146057730Y-103894819D01*
X146057730Y-103894819D02*
X145867254Y-103894819D01*
X145867254Y-103894819D02*
X145772016Y-103847200D01*
X145772016Y-103847200D02*
X145724397Y-103799580D01*
X145724397Y-103799580D02*
X145676778Y-103704342D01*
X145676778Y-103704342D02*
X145676778Y-103418628D01*
X145676778Y-103418628D02*
X145724397Y-103323390D01*
X145724397Y-103323390D02*
X145772016Y-103275771D01*
X145772016Y-103275771D02*
X145867254Y-103228152D01*
X145867254Y-103228152D02*
X146057730Y-103228152D01*
X146057730Y-103228152D02*
X146152968Y-103275771D01*
X145022200Y-102010839D02*
X145069819Y-101867982D01*
X145069819Y-101867982D02*
X145069819Y-101629887D01*
X145069819Y-101629887D02*
X145022200Y-101534649D01*
X145022200Y-101534649D02*
X144974580Y-101487030D01*
X144974580Y-101487030D02*
X144879342Y-101439411D01*
X144879342Y-101439411D02*
X144784104Y-101439411D01*
X144784104Y-101439411D02*
X144688866Y-101487030D01*
X144688866Y-101487030D02*
X144641247Y-101534649D01*
X144641247Y-101534649D02*
X144593628Y-101629887D01*
X144593628Y-101629887D02*
X144546009Y-101820363D01*
X144546009Y-101820363D02*
X144498390Y-101915601D01*
X144498390Y-101915601D02*
X144450771Y-101963220D01*
X144450771Y-101963220D02*
X144355533Y-102010839D01*
X144355533Y-102010839D02*
X144260295Y-102010839D01*
X144260295Y-102010839D02*
X144165057Y-101963220D01*
X144165057Y-101963220D02*
X144117438Y-101915601D01*
X144117438Y-101915601D02*
X144069819Y-101820363D01*
X144069819Y-101820363D02*
X144069819Y-101582268D01*
X144069819Y-101582268D02*
X144117438Y-101439411D01*
X145069819Y-101010839D02*
X144069819Y-101010839D01*
X144069819Y-101010839D02*
X144069819Y-100629887D01*
X144069819Y-100629887D02*
X144117438Y-100534649D01*
X144117438Y-100534649D02*
X144165057Y-100487030D01*
X144165057Y-100487030D02*
X144260295Y-100439411D01*
X144260295Y-100439411D02*
X144403152Y-100439411D01*
X144403152Y-100439411D02*
X144498390Y-100487030D01*
X144498390Y-100487030D02*
X144546009Y-100534649D01*
X144546009Y-100534649D02*
X144593628Y-100629887D01*
X144593628Y-100629887D02*
X144593628Y-101010839D01*
X145069819Y-100010839D02*
X144069819Y-100010839D01*
X148469819Y-96363220D02*
X147469819Y-96363220D01*
X147469819Y-95696554D02*
X147469819Y-95506078D01*
X147469819Y-95506078D02*
X147517438Y-95410840D01*
X147517438Y-95410840D02*
X147612676Y-95315602D01*
X147612676Y-95315602D02*
X147803152Y-95267983D01*
X147803152Y-95267983D02*
X148136485Y-95267983D01*
X148136485Y-95267983D02*
X148326961Y-95315602D01*
X148326961Y-95315602D02*
X148422200Y-95410840D01*
X148422200Y-95410840D02*
X148469819Y-95506078D01*
X148469819Y-95506078D02*
X148469819Y-95696554D01*
X148469819Y-95696554D02*
X148422200Y-95791792D01*
X148422200Y-95791792D02*
X148326961Y-95887030D01*
X148326961Y-95887030D02*
X148136485Y-95934649D01*
X148136485Y-95934649D02*
X147803152Y-95934649D01*
X147803152Y-95934649D02*
X147612676Y-95887030D01*
X147612676Y-95887030D02*
X147517438Y-95791792D01*
X147517438Y-95791792D02*
X147469819Y-95696554D01*
X149060588Y-104669819D02*
X148489160Y-104669819D01*
X148774874Y-104669819D02*
X148774874Y-103669819D01*
X148774874Y-103669819D02*
X148679636Y-103812676D01*
X148679636Y-103812676D02*
X148584398Y-103907914D01*
X148584398Y-103907914D02*
X148489160Y-103955533D01*
D11*
G04 #@! TO.C,J1*
X141230000Y-99410000D02*
X141230000Y-98300000D01*
X141990000Y-99410000D02*
X141230000Y-99410000D01*
X142750000Y-97190000D02*
X147765000Y-97190000D01*
X142750000Y-97736529D02*
X142750000Y-97190000D01*
X142750000Y-99410000D02*
X142750000Y-98863471D01*
X142750000Y-99410000D02*
X147765000Y-99410000D01*
X147765000Y-97992470D02*
X147765000Y-97190000D01*
X147765000Y-99410000D02*
X147765000Y-98607530D01*
G04 #@! TO.C,J7*
X141290000Y-105015000D02*
X142340000Y-105015000D01*
X141290000Y-107515000D02*
X141290000Y-105015000D01*
X142340000Y-105015000D02*
X142340000Y-104025000D01*
X142460000Y-109485000D02*
X146340000Y-109485000D01*
X147510000Y-105015000D02*
X146460000Y-105015000D01*
X147510000Y-107515000D02*
X147510000Y-105015000D01*
G04 #@! TO.C,J3*
X142540000Y-94890000D02*
X142540000Y-95692470D01*
X142540000Y-96307530D02*
X142540000Y-97110000D01*
X145015000Y-94890000D02*
X142540000Y-94890000D01*
X145015000Y-94890000D02*
X145015000Y-95436529D01*
X145015000Y-96563471D02*
X145015000Y-97110000D01*
X145015000Y-97110000D02*
X142540000Y-97110000D01*
X145775000Y-94890000D02*
X146535000Y-94890000D01*
X146535000Y-94890000D02*
X146535000Y-96000000D01*
G04 #@! TD*
%LPC*%
D12*
G04 #@! TO.C,J1*
X141990000Y-98300000D03*
D13*
X143260000Y-98300000D03*
X144530000Y-98300000D03*
X145800000Y-98300000D03*
X147070000Y-98300000D03*
G04 #@! TD*
D14*
G04 #@! TO.C,J7*
X142900000Y-104800000D03*
X143900000Y-104800000D03*
X144900000Y-104800000D03*
X145900000Y-104800000D03*
D15*
X141600000Y-108675000D03*
X147200000Y-108675000D03*
G04 #@! TD*
D16*
G04 #@! TO.C,J3*
X145775000Y-96000000D03*
D13*
X144505000Y-96000000D03*
X143235000Y-96000000D03*
G04 #@! TD*
D17*
G04 #@! TO.C,J2*
X148990000Y-102600000D03*
D18*
X146230000Y-102300000D03*
D17*
X148990000Y-102000000D03*
D18*
X146230000Y-101700000D03*
D17*
X148990000Y-101400000D03*
D18*
X146230000Y-101100000D03*
D17*
X148990000Y-100800000D03*
G04 #@! TD*
D19*
G04 #@! TO.C,J5*
X140010000Y-100800000D03*
D20*
X142770000Y-101100000D03*
D19*
X140010000Y-101400000D03*
D20*
X142770000Y-101700000D03*
D19*
X140010000Y-102000000D03*
D20*
X142770000Y-102300000D03*
D19*
X140010000Y-102600000D03*
G04 #@! TD*
%LPD*%
M02*
