G04 #@! TF.GenerationSoftware,KiCad,Pcbnew,8.0.7-8.0.7-0~ubuntu24.04.1*
G04 #@! TF.CreationDate,2024-12-31T11:09:28-07:00*
G04 #@! TF.ProjectId,Sensor Board,53656e73-6f72-4204-926f-6172642e6b69,rev?*
G04 #@! TF.SameCoordinates,Original*
G04 #@! TF.FileFunction,Copper,L1,Top*
G04 #@! TF.FilePolarity,Positive*
%FSLAX46Y46*%
G04 Gerber Fmt 4.6, Leading zero omitted, Abs format (unit mm)*
G04 Created by KiCad (PCBNEW 8.0.7-8.0.7-0~ubuntu24.04.1) date 2024-12-31 11:09:28*
%MOMM*%
%LPD*%
G01*
G04 APERTURE LIST*
G04 Aperture macros list*
%AMRoundRect*
0 Rectangle with rounded corners*
0 $1 Rounding radius*
0 $2 $3 $4 $5 $6 $7 $8 $9 X,Y pos of 4 corners*
0 Add a 4 corners polygon primitive as box body*
4,1,4,$2,$3,$4,$5,$6,$7,$8,$9,$2,$3,0*
0 Add four circle primitives for the rounded corners*
1,1,$1+$1,$2,$3*
1,1,$1+$1,$4,$5*
1,1,$1+$1,$6,$7*
1,1,$1+$1,$8,$9*
0 Add four rect primitives between the rounded corners*
20,1,$1+$1,$2,$3,$4,$5,0*
20,1,$1+$1,$4,$5,$6,$7,0*
20,1,$1+$1,$6,$7,$8,$9,0*
20,1,$1+$1,$8,$9,$2,$3,0*%
G04 Aperture macros list end*
G04 #@! TA.AperFunction,ComponentPad*
%ADD10R,1.000000X1.000000*%
G04 #@! TD*
G04 #@! TA.AperFunction,ComponentPad*
%ADD11O,1.000000X1.000000*%
G04 #@! TD*
G04 #@! TA.AperFunction,SMDPad,CuDef*
%ADD12RoundRect,0.150000X-0.150000X-0.625000X0.150000X-0.625000X0.150000X0.625000X-0.150000X0.625000X0*%
G04 #@! TD*
G04 #@! TA.AperFunction,SMDPad,CuDef*
%ADD13RoundRect,0.250000X-0.350000X-0.650000X0.350000X-0.650000X0.350000X0.650000X-0.350000X0.650000X0*%
G04 #@! TD*
G04 #@! TA.AperFunction,SMDPad,CuDef*
%ADD14R,0.440000X0.230000*%
G04 #@! TD*
G04 #@! TA.AperFunction,SMDPad,CuDef*
%ADD15R,0.340000X0.230000*%
G04 #@! TD*
G04 #@! TA.AperFunction,ViaPad*
%ADD16C,0.600000*%
G04 #@! TD*
G04 #@! TA.AperFunction,Conductor*
%ADD17C,0.160000*%
G04 #@! TD*
G04 #@! TA.AperFunction,Conductor*
%ADD18C,0.200000*%
G04 #@! TD*
G04 APERTURE END LIST*
D10*
G04 #@! TO.P,J1,1,Pin_1*
G04 #@! TO.N,VDD*
X141990000Y-98300000D03*
D11*
G04 #@! TO.P,J1,2,Pin_2*
G04 #@! TO.N,SCK1*
X143260000Y-98300000D03*
G04 #@! TO.P,J1,3,Pin_3*
G04 #@! TO.N,MISO1*
X144530000Y-98300000D03*
G04 #@! TO.P,J1,4,Pin_4*
G04 #@! TO.N,MOSI1*
X145800000Y-98300000D03*
G04 #@! TO.P,J1,5,Pin_5*
G04 #@! TO.N,GND*
X147070000Y-98300000D03*
G04 #@! TD*
D12*
G04 #@! TO.P,J7,1,Pin_1*
G04 #@! TO.N,GND*
X142900000Y-104800000D03*
G04 #@! TO.P,J7,2,Pin_2*
G04 #@! TO.N,VDD*
X143900000Y-104800000D03*
G04 #@! TO.P,J7,3,Pin_3*
G04 #@! TO.N,SDA1*
X144900000Y-104800000D03*
G04 #@! TO.P,J7,4,Pin_4*
G04 #@! TO.N,SCL1*
X145900000Y-104800000D03*
D13*
G04 #@! TO.P,J7,MP,MountPin*
G04 #@! TO.N,GND*
X141600000Y-108675000D03*
X147200000Y-108675000D03*
G04 #@! TD*
D10*
G04 #@! TO.P,J3,1,Pin_1*
G04 #@! TO.N,CS1*
X145775000Y-96000000D03*
D11*
G04 #@! TO.P,J3,2,Pin_2*
G04 #@! TO.N,CS2*
X144505000Y-96000000D03*
G04 #@! TO.P,J3,3,Pin_3*
G04 #@! TO.N,Free1*
X143235000Y-96000000D03*
G04 #@! TD*
D14*
G04 #@! TO.P,J2,1,Pin_1*
G04 #@! TO.N,VDD*
X148990000Y-102600000D03*
D15*
G04 #@! TO.P,J2,2,Pin_2*
G04 #@! TO.N,SCK1*
X146230000Y-102300000D03*
D14*
G04 #@! TO.P,J2,3,Pin_3*
G04 #@! TO.N,GND*
X148990000Y-102000000D03*
D15*
G04 #@! TO.P,J2,4,Pin_4*
G04 #@! TO.N,MISO1*
X146230000Y-101700000D03*
D14*
G04 #@! TO.P,J2,5,Pin_5*
G04 #@! TO.N,CS1*
X148990000Y-101400000D03*
D15*
G04 #@! TO.P,J2,6,Pin_6*
G04 #@! TO.N,MOSI1*
X146230000Y-101100000D03*
D14*
G04 #@! TO.P,J2,7,Pin_7*
G04 #@! TO.N,GND*
X148990000Y-100800000D03*
G04 #@! TD*
G04 #@! TO.P,J5,1,Pin_1*
G04 #@! TO.N,VDD*
X140010000Y-100800000D03*
D15*
G04 #@! TO.P,J5,2,Pin_2*
G04 #@! TO.N,SCK1*
X142770000Y-101100000D03*
D14*
G04 #@! TO.P,J5,3,Pin_3*
G04 #@! TO.N,GND*
X140010000Y-101400000D03*
D15*
G04 #@! TO.P,J5,4,Pin_4*
G04 #@! TO.N,MISO1*
X142770000Y-101700000D03*
D14*
G04 #@! TO.P,J5,5,Pin_5*
G04 #@! TO.N,CS2*
X140010000Y-102000000D03*
D15*
G04 #@! TO.P,J5,6,Pin_6*
G04 #@! TO.N,MOSI1*
X142770000Y-102300000D03*
D14*
G04 #@! TO.P,J5,7,Pin_7*
G04 #@! TO.N,GND*
X140010000Y-102600000D03*
G04 #@! TD*
D16*
G04 #@! TO.N,GND*
X140300000Y-96800000D03*
X148300000Y-105300000D03*
X141100000Y-105100000D03*
X148600000Y-96500000D03*
X144485000Y-108799246D03*
G04 #@! TO.N,MOSI1*
X145200000Y-100200000D03*
G04 #@! TO.N,VDD*
X141700000Y-100300000D03*
X148100000Y-103900000D03*
X143950000Y-106100000D03*
G04 #@! TO.N,MISO1*
X142910000Y-100267114D03*
G04 #@! TO.N,CS1*
X147536151Y-102305158D03*
G04 #@! TO.N,SCK1*
X144800000Y-102240000D03*
X143990000Y-100200000D03*
G04 #@! TO.N,CS2*
X141484789Y-102303746D03*
G04 #@! TO.N,SCL1*
X146700000Y-104300000D03*
G04 #@! TO.N,SDA1*
X145267173Y-105800000D03*
G04 #@! TD*
D17*
G04 #@! TO.N,GND*
X148990000Y-102000000D02*
X148900000Y-102000000D01*
G04 #@! TO.N,MOSI1*
X146700000Y-102600000D02*
X146700000Y-101515000D01*
X143315158Y-102845158D02*
X146454842Y-102845158D01*
X146285000Y-101100000D02*
X146230000Y-101100000D01*
X146454842Y-102845158D02*
X146700000Y-102600000D01*
X145200000Y-100200000D02*
X146100000Y-101100000D01*
X146700000Y-101515000D02*
X146285000Y-101100000D01*
X145800000Y-99600000D02*
X145800000Y-98300000D01*
X146100000Y-101100000D02*
X146230000Y-101100000D01*
X145200000Y-100200000D02*
X145800000Y-99600000D01*
X142770000Y-102300000D02*
X143315158Y-102845158D01*
D18*
G04 #@! TO.N,VDD*
X148100000Y-103490000D02*
X148990000Y-102600000D01*
X141200000Y-100800000D02*
X141700000Y-100300000D01*
X148100000Y-103900000D02*
X148100000Y-103490000D01*
X143900000Y-106050000D02*
X143900000Y-104800000D01*
X140010000Y-100800000D02*
X141200000Y-100800000D01*
X143950000Y-106100000D02*
X143900000Y-106050000D01*
X141700000Y-100200000D02*
X141990000Y-99910000D01*
X141990000Y-99910000D02*
X141990000Y-98300000D01*
X141700000Y-100300000D02*
X141700000Y-100200000D01*
D17*
G04 #@! TO.N,MISO1*
X142770000Y-101700000D02*
X144400000Y-101700000D01*
X144530000Y-101570000D02*
X144530000Y-98300000D01*
X144400000Y-101700000D02*
X146230000Y-101700000D01*
X144400000Y-101700000D02*
X144530000Y-101570000D01*
X142330000Y-101530000D02*
X142500000Y-101700000D01*
X142910000Y-100267114D02*
X142330000Y-100847114D01*
X142500000Y-101700000D02*
X142770000Y-101700000D01*
X142330000Y-100847114D02*
X142330000Y-101530000D01*
G04 #@! TO.N,CS1*
X148441309Y-101400000D02*
X148990000Y-101400000D01*
X147536151Y-102305158D02*
X148441309Y-101400000D01*
G04 #@! TO.N,SCK1*
X143990000Y-100200000D02*
X143260000Y-99470000D01*
X143990000Y-100200000D02*
X143090000Y-101100000D01*
X143090000Y-101100000D02*
X142770000Y-101100000D01*
X144860000Y-102300000D02*
X144800000Y-102240000D01*
X146230000Y-102300000D02*
X144860000Y-102300000D01*
X143260000Y-99470000D02*
X143260000Y-98300000D01*
G04 #@! TO.N,CS2*
X140418746Y-102303746D02*
X140115000Y-102000000D01*
X141484789Y-102303746D02*
X140418746Y-102303746D01*
X140115000Y-102000000D02*
X140010000Y-102000000D01*
G04 #@! TO.N,SCL1*
X145900000Y-104800000D02*
X146200000Y-104800000D01*
X146200000Y-104800000D02*
X146700000Y-104300000D01*
G04 #@! TO.N,SDA1*
X145267173Y-105800000D02*
X144900000Y-105432827D01*
X144900000Y-105432827D02*
X144900000Y-104800000D01*
G04 #@! TD*
G04 #@! TA.AperFunction,Conductor*
G04 #@! TO.N,GND*
G36*
X142092129Y-100672989D02*
G01*
X142113007Y-100722832D01*
X142107092Y-100756803D01*
X142105571Y-100760478D01*
X142105562Y-100760500D01*
X142089500Y-100799276D01*
X142089500Y-101482161D01*
X142089500Y-101577839D01*
X142113909Y-101636768D01*
X142126114Y-101666234D01*
X142363763Y-101903883D01*
X142363767Y-101903886D01*
X142452161Y-101940500D01*
X142452162Y-101940500D01*
X142452163Y-101940500D01*
X142456709Y-101942383D01*
X142496552Y-101978891D01*
X142503606Y-102032468D01*
X142487401Y-102062009D01*
X142488609Y-102062816D01*
X142448812Y-102122376D01*
X142439776Y-102167806D01*
X142439500Y-102169194D01*
X142439500Y-102430806D01*
X142440298Y-102434818D01*
X142448812Y-102477623D01*
X142484285Y-102530714D01*
X142498932Y-102540500D01*
X142537376Y-102566187D01*
X142584194Y-102575500D01*
X142672659Y-102575500D01*
X142723439Y-102593982D01*
X142728520Y-102598639D01*
X143178924Y-103049043D01*
X143178925Y-103049043D01*
X143178926Y-103049044D01*
X143267320Y-103085658D01*
X143267322Y-103085658D01*
X146502679Y-103085658D01*
X146502681Y-103085658D01*
X146591075Y-103049044D01*
X146903886Y-102736232D01*
X146940500Y-102647838D01*
X146940500Y-102552161D01*
X146940500Y-102472550D01*
X146958982Y-102421770D01*
X147005782Y-102394750D01*
X147059000Y-102404134D01*
X147091361Y-102439733D01*
X147144768Y-102556681D01*
X147144769Y-102556682D01*
X147230263Y-102655346D01*
X147231487Y-102656759D01*
X147342885Y-102728351D01*
X147432633Y-102754703D01*
X147469940Y-102765658D01*
X147469941Y-102765658D01*
X147602362Y-102765658D01*
X147631200Y-102757189D01*
X147729417Y-102728351D01*
X147840815Y-102656759D01*
X147927532Y-102556683D01*
X147982541Y-102436230D01*
X148001386Y-102305158D01*
X147991285Y-102234908D01*
X148002352Y-102182017D01*
X148013616Y-102167810D01*
X148517788Y-101663639D01*
X148566764Y-101640801D01*
X148573649Y-101640500D01*
X148644968Y-101640500D01*
X148688856Y-101653812D01*
X148707376Y-101666187D01*
X148754194Y-101675500D01*
X149220500Y-101675500D01*
X149271280Y-101693982D01*
X149298300Y-101740782D01*
X149299500Y-101754500D01*
X149299500Y-102245500D01*
X149281018Y-102296280D01*
X149234218Y-102323300D01*
X149220500Y-102324500D01*
X148754194Y-102324500D01*
X148707376Y-102333812D01*
X148654285Y-102369285D01*
X148618812Y-102422376D01*
X148609500Y-102469194D01*
X148609500Y-102579376D01*
X148591018Y-102630156D01*
X148586361Y-102635237D01*
X147952439Y-103269159D01*
X147915798Y-103305799D01*
X147879158Y-103342439D01*
X147879156Y-103342442D01*
X147839500Y-103438180D01*
X147839500Y-103476879D01*
X147821018Y-103527659D01*
X147803212Y-103543337D01*
X147795336Y-103548398D01*
X147795335Y-103548399D01*
X147708619Y-103648474D01*
X147653610Y-103768927D01*
X147653609Y-103768930D01*
X147634765Y-103900000D01*
X147653609Y-104031069D01*
X147653610Y-104031072D01*
X147708619Y-104151525D01*
X147795336Y-104251601D01*
X147906734Y-104323193D01*
X147996482Y-104349545D01*
X148033789Y-104360500D01*
X148033790Y-104360500D01*
X148166211Y-104360500D01*
X148195049Y-104352031D01*
X148293266Y-104323193D01*
X148404664Y-104251601D01*
X148491381Y-104151525D01*
X148546390Y-104031072D01*
X148565235Y-103900000D01*
X148546390Y-103768928D01*
X148491381Y-103648475D01*
X148455307Y-103606844D01*
X148436022Y-103556365D01*
X148453696Y-103505298D01*
X148459151Y-103499250D01*
X149059763Y-102898639D01*
X149108739Y-102875801D01*
X149115624Y-102875500D01*
X149220500Y-102875500D01*
X149271280Y-102893982D01*
X149298300Y-102940782D01*
X149299500Y-102954500D01*
X149299500Y-109520500D01*
X149281018Y-109571280D01*
X149234218Y-109598300D01*
X149220500Y-109599500D01*
X148358547Y-109599500D01*
X148307767Y-109581018D01*
X148280747Y-109534218D01*
X148283557Y-109495652D01*
X148289505Y-109477698D01*
X148289506Y-109477696D01*
X148300000Y-109374974D01*
X148300000Y-108925000D01*
X146100001Y-108925000D01*
X146100001Y-109374975D01*
X146110493Y-109477691D01*
X146110496Y-109477704D01*
X146116443Y-109495652D01*
X146114871Y-109549668D01*
X146078946Y-109590036D01*
X146041453Y-109599500D01*
X142758547Y-109599500D01*
X142707767Y-109581018D01*
X142680747Y-109534218D01*
X142683557Y-109495652D01*
X142689505Y-109477698D01*
X142689506Y-109477696D01*
X142700000Y-109374974D01*
X142700000Y-108925000D01*
X140500001Y-108925000D01*
X140500001Y-109374975D01*
X140510493Y-109477691D01*
X140510496Y-109477704D01*
X140516443Y-109495652D01*
X140514871Y-109549668D01*
X140478946Y-109590036D01*
X140441453Y-109599500D01*
X139779500Y-109599500D01*
X139728720Y-109581018D01*
X139701700Y-109534218D01*
X139700500Y-109520500D01*
X139700500Y-107975025D01*
X140500000Y-107975025D01*
X140500000Y-108425000D01*
X141350000Y-108425000D01*
X141850000Y-108425000D01*
X142699999Y-108425000D01*
X142699999Y-107975025D01*
X146100000Y-107975025D01*
X146100000Y-108425000D01*
X146950000Y-108425000D01*
X147450000Y-108425000D01*
X148299999Y-108425000D01*
X148299999Y-107975024D01*
X148289506Y-107872308D01*
X148289504Y-107872298D01*
X148234358Y-107705877D01*
X148142317Y-107556656D01*
X148142315Y-107556653D01*
X148018346Y-107432684D01*
X148018343Y-107432682D01*
X147869122Y-107340641D01*
X147702695Y-107285493D01*
X147702696Y-107285493D01*
X147599975Y-107275000D01*
X147450000Y-107275000D01*
X147450000Y-108425000D01*
X146950000Y-108425000D01*
X146950000Y-107275000D01*
X146800024Y-107275000D01*
X146697308Y-107285493D01*
X146697298Y-107285495D01*
X146530877Y-107340641D01*
X146381656Y-107432682D01*
X146381653Y-107432684D01*
X146257684Y-107556653D01*
X146257682Y-107556656D01*
X146165641Y-107705877D01*
X146110493Y-107872303D01*
X146100000Y-107975025D01*
X142699999Y-107975025D01*
X142699999Y-107975024D01*
X142689506Y-107872308D01*
X142689504Y-107872298D01*
X142634358Y-107705877D01*
X142542317Y-107556656D01*
X142542315Y-107556653D01*
X142418346Y-107432684D01*
X142418343Y-107432682D01*
X142269122Y-107340641D01*
X142102695Y-107285493D01*
X142102696Y-107285493D01*
X141999975Y-107275000D01*
X141850000Y-107275000D01*
X141850000Y-108425000D01*
X141350000Y-108425000D01*
X141350000Y-107275000D01*
X141200024Y-107275000D01*
X141097308Y-107285493D01*
X141097298Y-107285495D01*
X140930877Y-107340641D01*
X140781656Y-107432682D01*
X140781653Y-107432684D01*
X140657684Y-107556653D01*
X140657682Y-107556656D01*
X140565641Y-107705877D01*
X140510493Y-107872303D01*
X140500000Y-107975025D01*
X139700500Y-107975025D01*
X139700500Y-105490634D01*
X142100000Y-105490634D01*
X142102900Y-105527489D01*
X142102901Y-105527494D01*
X142148716Y-105685195D01*
X142232317Y-105826556D01*
X142232319Y-105826559D01*
X142348440Y-105942680D01*
X142348443Y-105942682D01*
X142489804Y-106026283D01*
X142647507Y-106072099D01*
X142650000Y-106072295D01*
X143150000Y-106072295D01*
X143152490Y-106072099D01*
X143152493Y-106072099D01*
X143310195Y-106026283D01*
X143310197Y-106026282D01*
X143370704Y-105990498D01*
X143423821Y-105980557D01*
X143470901Y-106007084D01*
X143489915Y-106057668D01*
X143489115Y-106069737D01*
X143484765Y-106099997D01*
X143484765Y-106099999D01*
X143503609Y-106231069D01*
X143503610Y-106231072D01*
X143558619Y-106351525D01*
X143645336Y-106451601D01*
X143756734Y-106523193D01*
X143846482Y-106549545D01*
X143883789Y-106560500D01*
X143883790Y-106560500D01*
X144016211Y-106560500D01*
X144045049Y-106552031D01*
X144143266Y-106523193D01*
X144254664Y-106451601D01*
X144341381Y-106351525D01*
X144396390Y-106231072D01*
X144415235Y-106100000D01*
X144396390Y-105968928D01*
X144341381Y-105848475D01*
X144299377Y-105800000D01*
X144261536Y-105756329D01*
X144242250Y-105705848D01*
X144259924Y-105654781D01*
X144265369Y-105648743D01*
X144310599Y-105603514D01*
X144327731Y-105564712D01*
X144365150Y-105525724D01*
X144418875Y-105519910D01*
X144463769Y-105549990D01*
X144472269Y-105564713D01*
X144489399Y-105603511D01*
X144489405Y-105603519D01*
X144571480Y-105685594D01*
X144571483Y-105685596D01*
X144571486Y-105685599D01*
X144677680Y-105732488D01*
X144703643Y-105735500D01*
X144724209Y-105735499D01*
X144774988Y-105753979D01*
X144802009Y-105800777D01*
X144802406Y-105803256D01*
X144820782Y-105931069D01*
X144820783Y-105931072D01*
X144875792Y-106051525D01*
X144917793Y-106099997D01*
X144962509Y-106151601D01*
X145073907Y-106223193D01*
X145163655Y-106249545D01*
X145200962Y-106260500D01*
X145200963Y-106260500D01*
X145333384Y-106260500D01*
X145362222Y-106252031D01*
X145460439Y-106223193D01*
X145571837Y-106151601D01*
X145658554Y-106051525D01*
X145713563Y-105931072D01*
X145731940Y-105803256D01*
X145757461Y-105755623D01*
X145807629Y-105735539D01*
X145810136Y-105735499D01*
X146096350Y-105735499D01*
X146096356Y-105735499D01*
X146122320Y-105732488D01*
X146228514Y-105685599D01*
X146310599Y-105603514D01*
X146357488Y-105497320D01*
X146360500Y-105471357D01*
X146360499Y-105012339D01*
X146378981Y-104961560D01*
X146383627Y-104956490D01*
X146558770Y-104781347D01*
X146607745Y-104758510D01*
X146628074Y-104760534D01*
X146628195Y-104759696D01*
X146633788Y-104760500D01*
X146633790Y-104760500D01*
X146766211Y-104760500D01*
X146808086Y-104748204D01*
X146893266Y-104723193D01*
X147004664Y-104651601D01*
X147091381Y-104551525D01*
X147146390Y-104431072D01*
X147165235Y-104300000D01*
X147146390Y-104168928D01*
X147091381Y-104048475D01*
X147004664Y-103948399D01*
X146893266Y-103876807D01*
X146861610Y-103867512D01*
X146766211Y-103839500D01*
X146766210Y-103839500D01*
X146633790Y-103839500D01*
X146633789Y-103839500D01*
X146506733Y-103876807D01*
X146506731Y-103876808D01*
X146395335Y-103948399D01*
X146389240Y-103955434D01*
X146342017Y-103981708D01*
X146288955Y-103971480D01*
X146273675Y-103959561D01*
X146228519Y-103914405D01*
X146228516Y-103914403D01*
X146228514Y-103914401D01*
X146122320Y-103867512D01*
X146096357Y-103864500D01*
X146096355Y-103864500D01*
X145703649Y-103864500D01*
X145703637Y-103864501D01*
X145677680Y-103867512D01*
X145571486Y-103914401D01*
X145571480Y-103914405D01*
X145489405Y-103996480D01*
X145489398Y-103996489D01*
X145472267Y-104035288D01*
X145434847Y-104074275D01*
X145381122Y-104080088D01*
X145336229Y-104050007D01*
X145327733Y-104035291D01*
X145310599Y-103996486D01*
X145310595Y-103996482D01*
X145310594Y-103996480D01*
X145228519Y-103914405D01*
X145228516Y-103914403D01*
X145228514Y-103914401D01*
X145122320Y-103867512D01*
X145096357Y-103864500D01*
X145096355Y-103864500D01*
X144703649Y-103864500D01*
X144703637Y-103864501D01*
X144677680Y-103867512D01*
X144571486Y-103914401D01*
X144571480Y-103914405D01*
X144489405Y-103996480D01*
X144489398Y-103996489D01*
X144472267Y-104035288D01*
X144434847Y-104074275D01*
X144381122Y-104080088D01*
X144336229Y-104050007D01*
X144327733Y-104035291D01*
X144310599Y-103996486D01*
X144310595Y-103996482D01*
X144310594Y-103996480D01*
X144228519Y-103914405D01*
X144228516Y-103914403D01*
X144228514Y-103914401D01*
X144122320Y-103867512D01*
X144096357Y-103864500D01*
X144096355Y-103864500D01*
X143703649Y-103864500D01*
X143703632Y-103864501D01*
X143677779Y-103867500D01*
X143625208Y-103854990D01*
X143600680Y-103829240D01*
X143567682Y-103773443D01*
X143567680Y-103773440D01*
X143451559Y-103657319D01*
X143451556Y-103657317D01*
X143310195Y-103573716D01*
X143152492Y-103527900D01*
X143150000Y-103527703D01*
X143150000Y-106072295D01*
X142650000Y-106072295D01*
X142650000Y-105050000D01*
X142100000Y-105050000D01*
X142100000Y-105490634D01*
X139700500Y-105490634D01*
X139700500Y-104109365D01*
X142100000Y-104109365D01*
X142100000Y-104550000D01*
X142650000Y-104550000D01*
X142650000Y-103527703D01*
X142649999Y-103527703D01*
X142647508Y-103527900D01*
X142647506Y-103527900D01*
X142489804Y-103573716D01*
X142348443Y-103657317D01*
X142348440Y-103657319D01*
X142232319Y-103773440D01*
X142232317Y-103773443D01*
X142148716Y-103914804D01*
X142102901Y-104072505D01*
X142102900Y-104072510D01*
X142100000Y-104109365D01*
X139700500Y-104109365D01*
X139700500Y-102354500D01*
X139718982Y-102303720D01*
X139765782Y-102276700D01*
X139779500Y-102275500D01*
X140017658Y-102275500D01*
X140068438Y-102293982D01*
X140073519Y-102298638D01*
X140145951Y-102371069D01*
X140214860Y-102439978D01*
X140282514Y-102507632D01*
X140370908Y-102544246D01*
X141047777Y-102544246D01*
X141098557Y-102562728D01*
X141107481Y-102571512D01*
X141126951Y-102593982D01*
X141180125Y-102655347D01*
X141291523Y-102726939D01*
X141381271Y-102753291D01*
X141418578Y-102764246D01*
X141418579Y-102764246D01*
X141551000Y-102764246D01*
X141579838Y-102755777D01*
X141678055Y-102726939D01*
X141789453Y-102655347D01*
X141876170Y-102555271D01*
X141931179Y-102434818D01*
X141950024Y-102303746D01*
X141931179Y-102172674D01*
X141876170Y-102052221D01*
X141789453Y-101952145D01*
X141723164Y-101909543D01*
X141678057Y-101880554D01*
X141678055Y-101880553D01*
X141551000Y-101843246D01*
X141550999Y-101843246D01*
X141418579Y-101843246D01*
X141418578Y-101843246D01*
X141291522Y-101880553D01*
X141291520Y-101880554D01*
X141180124Y-101952145D01*
X141107481Y-102035980D01*
X141060259Y-102062254D01*
X141047777Y-102063246D01*
X140551087Y-102063246D01*
X140500307Y-102044764D01*
X140495225Y-102040107D01*
X140413638Y-101958519D01*
X140390801Y-101909543D01*
X140390500Y-101902658D01*
X140390500Y-101869194D01*
X140381187Y-101822376D01*
X140345714Y-101769285D01*
X140303054Y-101740782D01*
X140292624Y-101733813D01*
X140292623Y-101733812D01*
X140245806Y-101724500D01*
X139779500Y-101724500D01*
X139728720Y-101706018D01*
X139701700Y-101659218D01*
X139700500Y-101645500D01*
X139700500Y-101154500D01*
X139718982Y-101103720D01*
X139765782Y-101076700D01*
X139779500Y-101075500D01*
X140245806Y-101075500D01*
X140300256Y-101064669D01*
X140300288Y-101064832D01*
X140322068Y-101060500D01*
X141251817Y-101060500D01*
X141312459Y-101035381D01*
X141347557Y-101020843D01*
X141347558Y-101020842D01*
X141347561Y-101020841D01*
X141584763Y-100783638D01*
X141633739Y-100760801D01*
X141640624Y-100760500D01*
X141766211Y-100760500D01*
X141795049Y-100752031D01*
X141893266Y-100723193D01*
X141991387Y-100660133D01*
X142044096Y-100648227D01*
X142092129Y-100672989D01*
G37*
G04 #@! TD.AperFunction*
G04 #@! TA.AperFunction,Conductor*
G36*
X149271280Y-95018982D02*
G01*
X149298300Y-95065782D01*
X149299500Y-95079500D01*
X149299500Y-101045500D01*
X149281018Y-101096280D01*
X149234218Y-101123300D01*
X149220500Y-101124500D01*
X148754194Y-101124500D01*
X148707376Y-101133812D01*
X148688857Y-101146187D01*
X148644968Y-101159500D01*
X148489148Y-101159500D01*
X148393471Y-101159500D01*
X148341692Y-101180947D01*
X148305078Y-101196113D01*
X148305077Y-101196114D01*
X147677379Y-101823809D01*
X147628403Y-101846646D01*
X147608074Y-101844626D01*
X147607954Y-101845462D01*
X147602362Y-101844658D01*
X147602361Y-101844658D01*
X147469941Y-101844658D01*
X147469940Y-101844658D01*
X147342884Y-101881965D01*
X147342882Y-101881966D01*
X147231486Y-101953557D01*
X147144770Y-102053632D01*
X147091361Y-102170583D01*
X147053454Y-102209096D01*
X146999659Y-102214233D01*
X146955149Y-102183590D01*
X146940500Y-102137765D01*
X146940500Y-101467163D01*
X146936829Y-101458300D01*
X146903886Y-101378768D01*
X146836232Y-101311114D01*
X146583638Y-101058519D01*
X146560801Y-101009543D01*
X146560500Y-101002658D01*
X146560500Y-100969194D01*
X146551187Y-100922376D01*
X146515714Y-100869285D01*
X146470682Y-100839197D01*
X146462624Y-100833813D01*
X146462623Y-100833812D01*
X146415806Y-100824500D01*
X146197341Y-100824500D01*
X146146561Y-100806018D01*
X146141480Y-100801361D01*
X145677469Y-100337350D01*
X145654631Y-100288374D01*
X145655133Y-100270254D01*
X145665235Y-100200000D01*
X145655134Y-100129751D01*
X145666201Y-100076860D01*
X145677464Y-100062653D01*
X146003886Y-99736233D01*
X146040500Y-99647839D01*
X146040500Y-99552161D01*
X146040500Y-98967475D01*
X146058982Y-98916695D01*
X146082783Y-98897526D01*
X146154390Y-98859944D01*
X146207939Y-98852712D01*
X146252168Y-98879779D01*
X146359471Y-99010528D01*
X146511739Y-99135492D01*
X146685468Y-99228351D01*
X146685472Y-99228352D01*
X146820000Y-99269160D01*
X146820000Y-99269159D01*
X147320000Y-99269159D01*
X147454527Y-99228352D01*
X147454531Y-99228351D01*
X147628260Y-99135492D01*
X147780528Y-99010528D01*
X147905492Y-98858260D01*
X147998348Y-98684536D01*
X147998352Y-98684528D01*
X148039162Y-98550000D01*
X147320000Y-98550000D01*
X147320000Y-99269159D01*
X146820000Y-99269159D01*
X146820000Y-98509618D01*
X146870446Y-98560064D01*
X146944555Y-98602851D01*
X147027213Y-98625000D01*
X147112787Y-98625000D01*
X147195445Y-98602851D01*
X147269554Y-98560064D01*
X147330064Y-98499554D01*
X147372851Y-98425445D01*
X147395000Y-98342787D01*
X147395000Y-98257213D01*
X147372851Y-98174555D01*
X147330064Y-98100446D01*
X147279618Y-98050000D01*
X147320000Y-98050000D01*
X148039161Y-98050000D01*
X148039161Y-98049999D01*
X147998352Y-97915471D01*
X147998348Y-97915463D01*
X147905492Y-97741739D01*
X147780528Y-97589471D01*
X147628260Y-97464507D01*
X147454536Y-97371651D01*
X147454528Y-97371647D01*
X147320000Y-97330838D01*
X147320000Y-98050000D01*
X147279618Y-98050000D01*
X147269554Y-98039936D01*
X147195445Y-97997149D01*
X147112787Y-97975000D01*
X147027213Y-97975000D01*
X146944555Y-97997149D01*
X146870446Y-98039936D01*
X146820000Y-98090382D01*
X146820000Y-97330838D01*
X146819999Y-97330838D01*
X146685471Y-97371647D01*
X146685463Y-97371651D01*
X146511739Y-97464507D01*
X146359471Y-97589472D01*
X146252167Y-97720221D01*
X146205665Y-97747749D01*
X146154387Y-97740054D01*
X146079653Y-97700830D01*
X146035934Y-97677884D01*
X145880202Y-97639500D01*
X145880199Y-97639500D01*
X145719801Y-97639500D01*
X145719797Y-97639500D01*
X145564064Y-97677885D01*
X145564063Y-97677885D01*
X145422038Y-97752426D01*
X145301981Y-97858787D01*
X145301974Y-97858794D01*
X145230015Y-97963045D01*
X145185958Y-97994337D01*
X145132094Y-97989989D01*
X145099985Y-97963045D01*
X145028025Y-97858794D01*
X145028018Y-97858787D01*
X144907961Y-97752426D01*
X144907962Y-97752426D01*
X144765936Y-97677885D01*
X144610202Y-97639500D01*
X144610199Y-97639500D01*
X144449801Y-97639500D01*
X144449797Y-97639500D01*
X144294064Y-97677885D01*
X144294063Y-97677885D01*
X144152038Y-97752426D01*
X144031981Y-97858787D01*
X144031974Y-97858794D01*
X143960015Y-97963045D01*
X143915958Y-97994337D01*
X143862094Y-97989989D01*
X143829985Y-97963045D01*
X143758025Y-97858794D01*
X143758018Y-97858787D01*
X143637961Y-97752426D01*
X143637962Y-97752426D01*
X143495936Y-97677885D01*
X143340202Y-97639500D01*
X143340199Y-97639500D01*
X143179801Y-97639500D01*
X143179797Y-97639500D01*
X143024064Y-97677885D01*
X143024063Y-97677885D01*
X142882038Y-97752426D01*
X142781886Y-97841153D01*
X142731621Y-97860992D01*
X142680363Y-97843879D01*
X142652096Y-97797822D01*
X142651107Y-97788035D01*
X142650881Y-97788058D01*
X142650500Y-97784198D01*
X142650500Y-97784194D01*
X142641187Y-97737376D01*
X142629725Y-97720221D01*
X142605714Y-97684285D01*
X142565984Y-97657740D01*
X142552624Y-97648813D01*
X142552623Y-97648812D01*
X142505806Y-97639500D01*
X141474194Y-97639500D01*
X141427376Y-97648812D01*
X141374285Y-97684285D01*
X141338812Y-97737376D01*
X141329500Y-97784194D01*
X141329500Y-98815805D01*
X141338812Y-98862623D01*
X141374285Y-98915714D01*
X141400831Y-98933450D01*
X141427376Y-98951187D01*
X141474194Y-98960500D01*
X141650500Y-98960500D01*
X141701280Y-98978982D01*
X141728300Y-99025782D01*
X141729500Y-99039500D01*
X141729500Y-99760500D01*
X141711018Y-99811280D01*
X141664218Y-99838300D01*
X141650500Y-99839500D01*
X141633789Y-99839500D01*
X141506733Y-99876807D01*
X141506731Y-99876808D01*
X141395335Y-99948399D01*
X141308619Y-100048474D01*
X141253610Y-100168927D01*
X141253609Y-100168930D01*
X141234765Y-100300000D01*
X141241309Y-100345518D01*
X141230241Y-100398411D01*
X141218975Y-100412621D01*
X141115237Y-100516361D01*
X141066261Y-100539199D01*
X141059375Y-100539500D01*
X140322068Y-100539500D01*
X140300288Y-100535167D01*
X140300256Y-100535331D01*
X140245806Y-100524500D01*
X139779500Y-100524500D01*
X139728720Y-100506018D01*
X139701700Y-100459218D01*
X139700500Y-100445500D01*
X139700500Y-95999999D01*
X142569649Y-95999999D01*
X142569649Y-96000000D01*
X142588983Y-96159230D01*
X142588983Y-96159231D01*
X142645859Y-96309202D01*
X142736979Y-96441210D01*
X142736981Y-96441212D01*
X142857038Y-96547573D01*
X142857037Y-96547573D01*
X142986869Y-96615714D01*
X142999063Y-96622114D01*
X143154801Y-96660500D01*
X143315199Y-96660500D01*
X143470937Y-96622114D01*
X143612962Y-96547573D01*
X143733022Y-96441209D01*
X143804984Y-96336953D01*
X143849042Y-96305662D01*
X143902906Y-96310010D01*
X143935016Y-96336954D01*
X144006979Y-96441210D01*
X144006981Y-96441212D01*
X144127038Y-96547573D01*
X144127037Y-96547573D01*
X144256869Y-96615714D01*
X144269063Y-96622114D01*
X144424801Y-96660500D01*
X144585199Y-96660500D01*
X144740937Y-96622114D01*
X144882962Y-96547573D01*
X144983113Y-96458847D01*
X145033379Y-96439007D01*
X145084637Y-96456120D01*
X145112903Y-96502177D01*
X145113892Y-96511964D01*
X145114119Y-96511942D01*
X145114499Y-96515801D01*
X145123812Y-96562623D01*
X145159285Y-96615714D01*
X145168864Y-96622114D01*
X145212376Y-96651187D01*
X145259194Y-96660500D01*
X146290806Y-96660500D01*
X146337624Y-96651187D01*
X146390714Y-96615714D01*
X146426187Y-96562624D01*
X146435500Y-96515806D01*
X146435500Y-95484194D01*
X146426187Y-95437376D01*
X146390714Y-95384285D01*
X146350984Y-95357740D01*
X146337624Y-95348813D01*
X146337623Y-95348812D01*
X146290806Y-95339500D01*
X145259194Y-95339500D01*
X145212376Y-95348812D01*
X145159285Y-95384285D01*
X145123812Y-95437376D01*
X145114499Y-95484198D01*
X145114119Y-95488058D01*
X145112365Y-95487885D01*
X145096018Y-95532800D01*
X145049218Y-95559820D01*
X144996000Y-95550436D01*
X144983114Y-95541153D01*
X144882961Y-95452426D01*
X144882962Y-95452426D01*
X144740936Y-95377885D01*
X144585202Y-95339500D01*
X144585199Y-95339500D01*
X144424801Y-95339500D01*
X144424797Y-95339500D01*
X144269064Y-95377885D01*
X144269063Y-95377885D01*
X144127038Y-95452426D01*
X144006981Y-95558787D01*
X144006974Y-95558794D01*
X143935015Y-95663045D01*
X143890958Y-95694337D01*
X143837094Y-95689989D01*
X143804985Y-95663045D01*
X143733025Y-95558794D01*
X143733018Y-95558787D01*
X143612961Y-95452426D01*
X143612962Y-95452426D01*
X143470936Y-95377885D01*
X143315202Y-95339500D01*
X143315199Y-95339500D01*
X143154801Y-95339500D01*
X143154797Y-95339500D01*
X142999064Y-95377885D01*
X142999063Y-95377885D01*
X142857038Y-95452426D01*
X142736981Y-95558787D01*
X142736979Y-95558789D01*
X142645859Y-95690797D01*
X142588983Y-95840768D01*
X142588983Y-95840769D01*
X142569649Y-95999999D01*
X139700500Y-95999999D01*
X139700500Y-95079500D01*
X139718982Y-95028720D01*
X139765782Y-95001700D01*
X139779500Y-95000500D01*
X149220500Y-95000500D01*
X149271280Y-95018982D01*
G37*
G04 #@! TD.AperFunction*
G04 #@! TD*
M02*
